<svg width="330" height="335" viewBox="0 0 330 335" fill="none" xmlns="http://www.w3.org/2000/svg">
<rect width="330" height="335" rx="12" fill="#F5F5F5"/>
<path d="M140.5 198.5C138.575 198.5 136.928 197.815 135.558 196.445C134.188 195.076 133.502 193.427 133.5 191.5V142.5C133.5 140.575 134.186 138.928 135.558 137.558C136.93 136.188 138.577 135.502 140.5 135.5H189.5C191.425 135.5 193.074 136.186 194.445 137.558C195.818 138.93 196.502 140.577 196.5 142.5V191.5C196.5 193.425 195.815 195.074 194.445 196.445C193.076 197.818 191.427 198.502 189.5 198.5H140.5ZM144 184.5H186L172.875 167L162.375 181L154.5 170.5L144 184.5Z" fill="#5D5F69"/>
</svg>
