<svg width="20" height="20" viewBox="0 0 20 20" fill="none" xmlns="http://www.w3.org/2000/svg">
<g clip-path="url(#clip0_2805_9161)">
<path d="M6.1168 5.34115L0.716797 10.7495L6.12513 16.1495L11.5335 10.7495L6.1168 5.34115ZM3.07513 10.7495L6.12513 7.69948L9.1668 10.7495L6.1168 13.7995L3.07513 10.7495ZM16.1335 5.53281C14.6751 4.06615 12.7501 3.33281 10.8335 3.33281V0.632812L7.30013 4.16615L10.8335 7.69948V4.99948C12.3251 4.99948 13.8168 5.56615 14.9585 6.70781C17.2335 8.98281 17.2335 12.6828 14.9585 14.9578C13.8168 16.0995 12.3251 16.6661 10.8335 16.6661C10.0251 16.6661 9.2168 16.4911 8.4668 16.1578L7.22513 17.3995C8.35013 18.0161 9.5918 18.3328 10.8335 18.3328C12.7501 18.3328 14.6751 17.5995 16.1335 16.1328C19.0668 13.2078 19.0668 8.45781 16.1335 5.53281Z" fill="#313131"/>
</g>
<defs>
<clipPath id="clip0_2805_9161">
<rect width="20" height="20" fill="white"/>
</clipPath>
</defs>
</svg>
