<svg width="32" height="32" viewBox="0 0 32 32" fill="none" xmlns="http://www.w3.org/2000/svg">
<path d="M7.13596 8.25603L7.99996 11.936L7.13596 15.6L10.352 17.584L12.32 20.8L16 19.936L19.68 20.8L21.648 17.584L24.864 15.6L24 11.936L24.864 8.25603L21.664 6.27203L19.68 3.05603L16 3.93603L12.336 3.07203L10.336 6.27203L7.13596 8.25603ZM16.016 18.4C14.3186 18.4 12.6907 17.7257 11.4905 16.5255C10.2902 15.3253 9.61596 13.6974 9.61596 12C9.61596 10.3026 10.2902 8.67478 11.4905 7.47455C12.6907 6.27431 14.3186 5.60003 16.016 5.60003C19.536 5.60003 22.4 8.46403 22.4 11.984C22.4 15.536 19.536 18.4 16.016 18.4ZM15.984 16.8C13.328 16.8 11.2 14.656 11.2 12C11.2 9.36003 13.328 7.20003 15.984 7.20003C18.64 7.20003 20.8 9.36003 20.8 12C20.8 14.656 18.64 16.8 15.984 16.8ZM22.128 18.56L20.08 22.144L16.752 21.392L20.8 30.72L23.04 27.2H27.04L22.128 18.56ZM9.80796 18.672L11.808 22.272L15.216 21.456L11.2 30.72L8.95996 27.2H4.95996L9.80796 18.672Z" fill="white"/>
</svg>
