<svg width="32" height="32" viewBox="0 0 32 32" fill="none" xmlns="http://www.w3.org/2000/svg">
<path d="M24 7.72727V22.2727C24 22.4656 23.9234 22.6506 23.787 22.787C23.6506 22.9234 23.4656 23 23.2727 23H10.9091C10.5233 23 10.1534 23.1532 9.88057 23.426C9.60779 23.6988 9.45455 24.0688 9.45455 24.4545H21.8182C22.0111 24.4545 22.1961 24.5312 22.3324 24.6676C22.4688 24.8039 22.5455 24.9889 22.5455 25.1818C22.5455 25.3747 22.4688 25.5597 22.3324 25.6961C22.1961 25.8325 22.0111 25.9091 21.8182 25.9091H8.72727C8.53439 25.9091 8.3494 25.8325 8.21301 25.6961C8.07662 25.5597 8 25.3747 8 25.1818V9.90909C8 9.13755 8.30649 8.39761 8.85205 7.85205C9.39761 7.30649 10.1376 7 10.9091 7H23.2727C23.4656 7 23.6506 7.07662 23.787 7.21301C23.9234 7.3494 24 7.53439 24 7.72727Z" fill="white"/>
</svg>
