<svg width="40" height="40" viewBox="0 0 40 40" fill="none" xmlns="http://www.w3.org/2000/svg">
<g filter="url(#filter0_d_318_3073)">
<rect x="4" width="32" height="32" rx="16" fill="white" shape-rendering="crispEdges"/>
<path fill-rule="evenodd" clip-rule="evenodd" d="M26.9999 16C26.9999 15.8674 26.9472 15.7402 26.8535 15.6464C26.7597 15.5527 26.6325 15.5 26.4999 15.5H14.7069L17.8539 12.354C17.9004 12.3075 17.9373 12.2523 17.9624 12.1916C17.9876 12.1308 18.0005 12.0657 18.0005 12C18.0005 11.9343 17.9876 11.8692 17.9624 11.8084C17.9373 11.7477 17.9004 11.6925 17.8539 11.646C17.8074 11.5995 17.7522 11.5626 17.6915 11.5375C17.6308 11.5123 17.5657 11.4994 17.4999 11.4994C17.4342 11.4994 17.3691 11.5123 17.3083 11.5375C17.2476 11.5626 17.1924 11.5995 17.1459 11.646L13.1459 15.646C13.0994 15.6924 13.0624 15.7476 13.0372 15.8084C13.012 15.8691 12.999 15.9342 12.999 16C12.999 16.0658 13.012 16.1309 13.0372 16.1916C13.0624 16.2524 13.0994 16.3076 13.1459 16.354L17.1459 20.354C17.1924 20.4005 17.2476 20.4374 17.3083 20.4625C17.3691 20.4877 17.4342 20.5006 17.4999 20.5006C17.5657 20.5006 17.6308 20.4877 17.6915 20.4625C17.7522 20.4374 17.8074 20.4005 17.8539 20.354C17.9004 20.3075 17.9373 20.2523 17.9624 20.1916C17.9876 20.1308 18.0005 20.0657 18.0005 20C18.0005 19.9343 17.9876 19.8692 17.9624 19.8084C17.9373 19.7477 17.9004 19.6925 17.8539 19.646L14.7069 16.5H26.4999C26.6325 16.5 26.7597 16.4473 26.8535 16.3536C26.9472 16.2598 26.9999 16.1326 26.9999 16Z" fill="#313131"/>
</g>
<defs>
<filter id="filter0_d_318_3073" x="0" y="0" width="40" height="40" filterUnits="userSpaceOnUse" color-interpolation-filters="sRGB">
<feFlood flood-opacity="0" result="BackgroundImageFix"/>
<feColorMatrix in="SourceAlpha" type="matrix" values="0 0 0 0 0 0 0 0 0 0 0 0 0 0 0 0 0 0 127 0" result="hardAlpha"/>
<feOffset dy="4"/>
<feGaussianBlur stdDeviation="2"/>
<feComposite in2="hardAlpha" operator="out"/>
<feColorMatrix type="matrix" values="0 0 0 0 0 0 0 0 0 0 0 0 0 0 0 0 0 0 0.05 0"/>
<feBlend mode="normal" in2="BackgroundImageFix" result="effect1_dropShadow_318_3073"/>
<feBlend mode="normal" in="SourceGraphic" in2="effect1_dropShadow_318_3073" result="shape"/>
</filter>
</defs>
</svg>
