<svg width="40" height="40" viewBox="0 0 40 40" fill="none" xmlns="http://www.w3.org/2000/svg">
<g filter="url(#filter0_d_318_3075)">
<rect x="4" width="32" height="32" rx="16" fill="white" shape-rendering="crispEdges"/>
<path fill-rule="evenodd" clip-rule="evenodd" d="M13 16C13 15.8674 13.0527 15.7402 13.1464 15.6464C13.2402 15.5527 13.3674 15.5 13.5 15.5H25.293L22.146 12.354C22.0521 12.2601 21.9994 12.1328 21.9994 12C21.9994 11.8672 22.0521 11.7399 22.146 11.646C22.2399 11.5521 22.3672 11.4994 22.5 11.4994C22.6328 11.4994 22.7601 11.5521 22.854 11.646L26.854 15.646C26.9006 15.6924 26.9375 15.7476 26.9627 15.8084C26.9879 15.8691 27.0009 15.9342 27.0009 16C27.0009 16.0658 26.9879 16.1309 26.9627 16.1916C26.9375 16.2524 26.9006 16.3076 26.854 16.354L22.854 20.354C22.7601 20.4479 22.6328 20.5006 22.5 20.5006C22.3672 20.5006 22.2399 20.4479 22.146 20.354C22.0521 20.2601 21.9994 20.1328 21.9994 20C21.9994 19.8672 22.0521 19.7399 22.146 19.646L25.293 16.5H13.5C13.3674 16.5 13.2402 16.4473 13.1464 16.3536C13.0527 16.2598 13 16.1326 13 16Z" fill="#313131"/>
</g>
<defs>
<filter id="filter0_d_318_3075" x="0" y="0" width="40" height="40" filterUnits="userSpaceOnUse" color-interpolation-filters="sRGB">
<feFlood flood-opacity="0" result="BackgroundImageFix"/>
<feColorMatrix in="SourceAlpha" type="matrix" values="0 0 0 0 0 0 0 0 0 0 0 0 0 0 0 0 0 0 127 0" result="hardAlpha"/>
<feOffset dy="4"/>
<feGaussianBlur stdDeviation="2"/>
<feComposite in2="hardAlpha" operator="out"/>
<feColorMatrix type="matrix" values="0 0 0 0 0 0 0 0 0 0 0 0 0 0 0 0 0 0 0.05 0"/>
<feBlend mode="normal" in2="BackgroundImageFix" result="effect1_dropShadow_318_3075"/>
<feBlend mode="normal" in="SourceGraphic" in2="effect1_dropShadow_318_3075" result="shape"/>
</filter>
</defs>
</svg>
