<svg width="12" height="12" viewBox="0 0 12 12" fill="none" xmlns="http://www.w3.org/2000/svg">
<path d="M10.6375 11.25C10.8125 11.25 10.9583 11.1917 11.075 11.075C11.1917 10.9583 11.25 10.8125 11.25 10.6375V8.275C11.25 8.14861 11.2063 8.03447 11.1188 7.93258C11.0313 7.83069 10.9194 7.76011 10.7833 7.72083L8.77083 7.3125C8.63472 7.29306 8.49608 7.30531 8.35492 7.34925C8.21375 7.39319 8.09961 7.45872 8.0125 7.54583L6.64167 8.91667C6.27222 8.70278 5.92222 8.46692 5.59167 8.20908C5.26111 7.95125 4.94514 7.67183 4.64375 7.37083C4.32292 7.05972 4.02872 6.73656 3.76117 6.40133C3.49361 6.06611 3.26281 5.71844 3.06875 5.35833L4.48333 3.92917C4.56111 3.85139 4.61458 3.75903 4.64375 3.65208C4.67292 3.54514 4.67778 3.41389 4.65833 3.25833L4.27917 1.21667C4.25972 1.09028 4.19653 0.981 4.08958 0.888833C3.98264 0.796667 3.86111 0.750389 3.725 0.75H1.3625C1.1875 0.75 1.04167 0.808333 0.925 0.925C0.808333 1.04167 0.75 1.1875 0.75 1.3625C0.75 2.57778 1.01483 3.77847 1.5445 4.96458C2.07417 6.15069 2.82531 7.22986 3.79792 8.20208C4.77053 9.1743 5.84969 9.92544 7.03542 10.4555C8.22114 10.9856 9.42183 11.2504 10.6375 11.25Z" fill="#313131"/>
</svg>
