<svg width="41" height="40" viewBox="0 0 41 40" fill="none" xmlns="http://www.w3.org/2000/svg">
<path d="M20.3333 3.33325C29.5383 3.33325 36.9999 10.7949 36.9999 19.9999C36.9999 29.2049 29.5383 36.6666 20.3333 36.6666C11.1283 36.6666 3.66661 29.2049 3.66661 19.9999C3.66661 10.7949 11.1283 3.33325 20.3333 3.33325ZM20.3333 9.99992C19.8913 9.99992 19.4673 10.1755 19.1548 10.4881C18.8422 10.8006 18.6666 11.2246 18.6666 11.6666V19.9999C18.6667 20.4419 18.8424 20.8658 19.1549 21.1783L24.1549 26.1783C24.4693 26.4818 24.8903 26.6498 25.3273 26.646C25.7643 26.6422 26.1823 26.467 26.4913 26.158C26.8003 25.8489 26.9756 25.4309 26.9794 24.9939C26.9832 24.5569 26.8152 24.1359 26.5116 23.8216L21.9999 19.3099V11.6666C21.9999 11.2246 21.8244 10.8006 21.5118 10.4881C21.1992 10.1755 20.7753 9.99992 20.3333 9.99992Z" fill="#E0630A"/>
</svg>
