<svg width="64" height="64" viewBox="0 0 64 64" fill="none" xmlns="http://www.w3.org/2000/svg">
<rect width="64" height="64" rx="32" fill="#1A86CC"/>
<path d="M40 23.7273V38.2727C40 38.4656 39.9234 38.6506 39.787 38.787C39.6506 38.9234 39.4656 39 39.2727 39H26.9091C26.5233 39 26.1534 39.1532 25.8806 39.426C25.6078 39.6988 25.4545 40.0688 25.4545 40.4545H37.8182C38.0111 40.4545 38.1961 40.5312 38.3324 40.6676C38.4688 40.8039 38.5455 40.9889 38.5455 41.1818C38.5455 41.3747 38.4688 41.5597 38.3324 41.6961C38.1961 41.8325 38.0111 41.9091 37.8182 41.9091H24.7273C24.5344 41.9091 24.3494 41.8325 24.213 41.6961C24.0766 41.5597 24 41.3747 24 41.1818V25.9091C24 25.1376 24.3065 24.3976 24.8521 23.8521C25.3976 23.3065 26.1376 23 26.9091 23H39.2727C39.4656 23 39.6506 23.0766 39.787 23.213C39.9234 23.3494 40 23.5344 40 23.7273Z" fill="white"/>
</svg>
