<svg width="120" height="48" viewBox="0 0 120 48" fill="none" xmlns="http://www.w3.org/2000/svg">
<g filter="url(#filter0_d_4755_6085)">
<rect x="4" width="40" height="40" rx="20" fill="#F8FAFD" shape-rendering="crispEdges"/>
<rect x="5" y="1" width="38" height="38" rx="19" stroke="white" stroke-width="2" shape-rendering="crispEdges"/>
<path d="M23.9998 18.3334C25.8408 18.3334 27.3332 16.841 27.3332 15.0001C27.3332 13.1591 25.8408 11.6667 23.9998 11.6667C22.1589 11.6667 20.6665 13.1591 20.6665 15.0001C20.6665 16.841 22.1589 18.3334 23.9998 18.3334Z" fill="#5D5F69"/>
<path d="M30.6668 24.5833C30.6668 26.6541 30.6668 28.3333 24.0002 28.3333C17.3335 28.3333 17.3335 26.6541 17.3335 24.5833C17.3335 22.5124 20.3185 20.8333 24.0002 20.8333C27.6818 20.8333 30.6668 22.5124 30.6668 24.5833Z" fill="#5D5F69"/>
</g>
<g filter="url(#filter1_d_4755_6085)">
<rect x="28" width="40" height="40" rx="20" fill="#F8FAFD" shape-rendering="crispEdges"/>
<rect x="29" y="1" width="38" height="38" rx="19" stroke="white" stroke-width="2" shape-rendering="crispEdges"/>
<path d="M47.9998 18.3334C49.8408 18.3334 51.3332 16.841 51.3332 15.0001C51.3332 13.1591 49.8408 11.6667 47.9998 11.6667C46.1589 11.6667 44.6665 13.1591 44.6665 15.0001C44.6665 16.841 46.1589 18.3334 47.9998 18.3334Z" fill="#5D5F69"/>
<path d="M54.6668 24.5833C54.6668 26.6541 54.6668 28.3333 48.0002 28.3333C41.3335 28.3333 41.3335 26.6541 41.3335 24.5833C41.3335 22.5124 44.3185 20.8333 48.0002 20.8333C51.6818 20.8333 54.6668 22.5124 54.6668 24.5833Z" fill="#5D5F69"/>
</g>
<g filter="url(#filter2_d_4755_6085)">
<rect x="52" width="40" height="40" rx="20" fill="#F8FAFD" shape-rendering="crispEdges"/>
<rect x="53" y="1" width="38" height="38" rx="19" stroke="white" stroke-width="2" shape-rendering="crispEdges"/>
<path d="M71.9998 18.3334C73.8408 18.3334 75.3332 16.841 75.3332 15.0001C75.3332 13.1591 73.8408 11.6667 71.9998 11.6667C70.1589 11.6667 68.6665 13.1591 68.6665 15.0001C68.6665 16.841 70.1589 18.3334 71.9998 18.3334Z" fill="#5D5F69"/>
<path d="M78.6668 24.5833C78.6668 26.6541 78.6668 28.3333 72.0002 28.3333C65.3335 28.3333 65.3335 26.6541 65.3335 24.5833C65.3335 22.5124 68.3185 20.8333 72.0002 20.8333C75.6818 20.8333 78.6668 22.5124 78.6668 24.5833Z" fill="#5D5F69"/>
</g>
<g filter="url(#filter3_d_4755_6085)">
<rect x="76" width="40" height="40" rx="20" fill="#F8FAFD" shape-rendering="crispEdges"/>
<rect x="77" y="1" width="38" height="38" rx="19" stroke="white" stroke-width="2" shape-rendering="crispEdges"/>
<path d="M95.9998 18.3334C97.8408 18.3334 99.3332 16.841 99.3332 15.0001C99.3332 13.1591 97.8408 11.6667 95.9998 11.6667C94.1589 11.6667 92.6665 13.1591 92.6665 15.0001C92.6665 16.841 94.1589 18.3334 95.9998 18.3334Z" fill="#5D5F69"/>
<path d="M102.667 24.5833C102.667 26.6541 102.667 28.3333 96.0002 28.3333C89.3335 28.3333 89.3335 26.6541 89.3335 24.5833C89.3335 22.5124 92.3185 20.8333 96.0002 20.8333C99.6818 20.8333 102.667 22.5124 102.667 24.5833Z" fill="#5D5F69"/>
</g>
<defs>
<filter id="filter0_d_4755_6085" x="0" y="0" width="48" height="48" filterUnits="userSpaceOnUse" color-interpolation-filters="sRGB">
<feFlood flood-opacity="0" result="BackgroundImageFix"/>
<feColorMatrix in="SourceAlpha" type="matrix" values="0 0 0 0 0 0 0 0 0 0 0 0 0 0 0 0 0 0 127 0" result="hardAlpha"/>
<feOffset dy="4"/>
<feGaussianBlur stdDeviation="2"/>
<feComposite in2="hardAlpha" operator="out"/>
<feColorMatrix type="matrix" values="0 0 0 0 0 0 0 0 0 0 0 0 0 0 0 0 0 0 0.1 0"/>
<feBlend mode="normal" in2="BackgroundImageFix" result="effect1_dropShadow_4755_6085"/>
<feBlend mode="normal" in="SourceGraphic" in2="effect1_dropShadow_4755_6085" result="shape"/>
</filter>
<filter id="filter1_d_4755_6085" x="24" y="0" width="48" height="48" filterUnits="userSpaceOnUse" color-interpolation-filters="sRGB">
<feFlood flood-opacity="0" result="BackgroundImageFix"/>
<feColorMatrix in="SourceAlpha" type="matrix" values="0 0 0 0 0 0 0 0 0 0 0 0 0 0 0 0 0 0 127 0" result="hardAlpha"/>
<feOffset dy="4"/>
<feGaussianBlur stdDeviation="2"/>
<feComposite in2="hardAlpha" operator="out"/>
<feColorMatrix type="matrix" values="0 0 0 0 0 0 0 0 0 0 0 0 0 0 0 0 0 0 0.1 0"/>
<feBlend mode="normal" in2="BackgroundImageFix" result="effect1_dropShadow_4755_6085"/>
<feBlend mode="normal" in="SourceGraphic" in2="effect1_dropShadow_4755_6085" result="shape"/>
</filter>
<filter id="filter2_d_4755_6085" x="48" y="0" width="48" height="48" filterUnits="userSpaceOnUse" color-interpolation-filters="sRGB">
<feFlood flood-opacity="0" result="BackgroundImageFix"/>
<feColorMatrix in="SourceAlpha" type="matrix" values="0 0 0 0 0 0 0 0 0 0 0 0 0 0 0 0 0 0 127 0" result="hardAlpha"/>
<feOffset dy="4"/>
<feGaussianBlur stdDeviation="2"/>
<feComposite in2="hardAlpha" operator="out"/>
<feColorMatrix type="matrix" values="0 0 0 0 0 0 0 0 0 0 0 0 0 0 0 0 0 0 0.1 0"/>
<feBlend mode="normal" in2="BackgroundImageFix" result="effect1_dropShadow_4755_6085"/>
<feBlend mode="normal" in="SourceGraphic" in2="effect1_dropShadow_4755_6085" result="shape"/>
</filter>
<filter id="filter3_d_4755_6085" x="72" y="0" width="48" height="48" filterUnits="userSpaceOnUse" color-interpolation-filters="sRGB">
<feFlood flood-opacity="0" result="BackgroundImageFix"/>
<feColorMatrix in="SourceAlpha" type="matrix" values="0 0 0 0 0 0 0 0 0 0 0 0 0 0 0 0 0 0 127 0" result="hardAlpha"/>
<feOffset dy="4"/>
<feGaussianBlur stdDeviation="2"/>
<feComposite in2="hardAlpha" operator="out"/>
<feColorMatrix type="matrix" values="0 0 0 0 0 0 0 0 0 0 0 0 0 0 0 0 0 0 0.1 0"/>
<feBlend mode="normal" in2="BackgroundImageFix" result="effect1_dropShadow_4755_6085"/>
<feBlend mode="normal" in="SourceGraphic" in2="effect1_dropShadow_4755_6085" result="shape"/>
</filter>
</defs>
</svg>
