<svg width="14" height="14" viewBox="0 0 14 14" fill="none" xmlns="http://www.w3.org/2000/svg">
<path d="M7.68539 0.333252C8.43539 0.335252 8.81606 0.339252 9.14472 0.348585L9.27406 0.353252C9.42339 0.358585 9.57072 0.365252 9.74872 0.373252C10.4581 0.406585 10.9421 0.518585 11.3667 0.683252C11.8067 0.852585 12.1774 1.08192 12.5481 1.45192C12.8871 1.78518 13.1494 2.18831 13.3167 2.63325C13.4814 3.05792 13.5934 3.54192 13.6267 4.25192C13.6347 4.42925 13.6414 4.57659 13.6467 4.72659L13.6507 4.85592C13.6607 5.18392 13.6647 5.56459 13.6661 6.31459L13.6667 6.81192V7.68525C13.6684 8.17152 13.6633 8.65779 13.6514 9.14392L13.6474 9.27325C13.6421 9.42325 13.6354 9.57059 13.6274 9.74792C13.5941 10.4579 13.4807 10.9413 13.3167 11.3666C13.1498 11.8118 12.8875 12.215 12.5481 12.5479C12.2147 12.8868 11.8116 13.1491 11.3667 13.3166C10.9421 13.4813 10.4581 13.5933 9.74872 13.6266C9.59054 13.634 9.43231 13.6407 9.27406 13.6466L9.14472 13.6506C8.81606 13.6599 8.43539 13.6646 7.68539 13.6659L7.18806 13.6666H6.31539C5.8289 13.6683 5.34241 13.6632 4.85606 13.6513L4.72673 13.6473C4.56847 13.6413 4.41024 13.6344 4.25206 13.6266C3.54273 13.5933 3.05873 13.4813 2.63339 13.3166C2.18851 13.1495 1.78554 12.8872 1.45273 12.5479C1.11342 12.2148 0.850875 11.8116 0.683392 11.3666C0.518726 10.9419 0.406726 10.4579 0.373392 9.74792C0.365965 9.58973 0.359298 9.43151 0.353392 9.27325L0.350059 9.14392C0.337774 8.6578 0.332218 8.17153 0.333392 7.68525V6.31459C0.331532 5.82832 0.336421 5.34205 0.348059 4.85592L0.352726 4.72659C0.358059 4.57659 0.364726 4.42925 0.372726 4.25192C0.406059 3.54192 0.518059 3.05859 0.682726 2.63325C0.850135 2.18785 1.11321 1.7846 1.45339 1.45192C1.78612 1.1129 2.18882 0.850577 2.63339 0.683252C3.05873 0.518585 3.54206 0.406585 4.25206 0.373252C4.42939 0.365252 4.57739 0.358585 4.72673 0.353252L4.85606 0.349252C5.34219 0.337407 5.82846 0.332295 6.31473 0.333919L7.68539 0.333252ZM7.00006 3.66659C6.116 3.66659 5.26816 4.01777 4.64304 4.6429C4.01792 5.26802 3.66673 6.11586 3.66673 6.99992C3.66673 7.88397 4.01792 8.73182 4.64304 9.35694C5.26816 9.98206 6.116 10.3333 7.00006 10.3333C7.88411 10.3333 8.73196 9.98206 9.35708 9.35694C9.9822 8.73182 10.3334 7.88397 10.3334 6.99992C10.3334 6.11586 9.9822 5.26802 9.35708 4.6429C8.73196 4.01777 7.88411 3.66659 7.00006 3.66659ZM7.00006 4.99992C7.2627 4.99988 7.52278 5.05156 7.76545 5.15203C8.00812 5.2525 8.22862 5.39978 8.41437 5.58547C8.60012 5.77116 8.74747 5.99161 8.84802 6.23424C8.94857 6.47688 9.00035 6.73694 9.00039 6.99959C9.00044 7.26223 8.94875 7.52231 8.84828 7.76498C8.74781 8.00765 8.60053 8.22815 8.41484 8.4139C8.22916 8.59964 8.0087 8.747 7.76607 8.84755C7.52343 8.9481 7.26337 8.99988 7.00073 8.99992C6.47029 8.99992 5.96158 8.78921 5.58651 8.41413C5.21144 8.03906 5.00073 7.53035 5.00073 6.99992C5.00073 6.46949 5.21144 5.96078 5.58651 5.5857C5.96158 5.21063 6.47029 4.99992 7.00073 4.99992M10.5007 2.66659C10.2797 2.66659 10.0677 2.75438 9.91147 2.91066C9.75519 3.06694 9.66739 3.2789 9.66739 3.49992C9.66739 3.72093 9.75519 3.93289 9.91147 4.08917C10.0677 4.24545 10.2797 4.33325 10.5007 4.33325C10.7217 4.33325 10.9337 4.24545 11.09 4.08917C11.2463 3.93289 11.3341 3.72093 11.3341 3.49992C11.3341 3.2789 11.2463 3.06694 11.09 2.91066C10.9337 2.75438 10.7217 2.66659 10.5007 2.66659Z" fill="url(#paint0_linear_464_1023)"/>
<defs>
<linearGradient id="paint0_linear_464_1023" x1="14.1184" y1="7.00912" x2="-1.28166" y2="7.00912" gradientUnits="userSpaceOnUse">
<stop stop-color="#187EC0"/>
<stop offset="1" stop-color="#005296"/>
</linearGradient>
</defs>
</svg>
