<svg width="16" height="16" viewBox="0 0 16 16" fill="none" xmlns="http://www.w3.org/2000/svg">
<path d="M6.00033 5.99996L2.66699 2.66663L6.00033 5.99996ZM2.66699 2.66663V5.33329V2.66663ZM2.66699 2.66663H5.33366H2.66699ZM10.0003 5.99996L13.3337 2.66663L10.0003 5.99996ZM13.3337 2.66663V5.33329V2.66663ZM13.3337 2.66663H10.667H13.3337ZM6.00033 9.99996L2.66699 13.3333L6.00033 9.99996ZM2.66699 13.3333V10.6666V13.3333ZM2.66699 13.3333H5.33366H2.66699ZM10.0003 9.99996L13.3337 13.3333L10.0003 9.99996ZM13.3337 13.3333V10.6666V13.3333ZM13.3337 13.3333H10.667H13.3337Z" fill="#5D5F69"/>
<path d="M6.00033 5.99996L2.66699 2.66663M2.66699 2.66663V5.33329M2.66699 2.66663H5.33366M10.0003 5.99996L13.3337 2.66663M13.3337 2.66663V5.33329M13.3337 2.66663H10.667M6.00033 9.99996L2.66699 13.3333M2.66699 13.3333V10.6666M2.66699 13.3333H5.33366M10.0003 9.99996L13.3337 13.3333M13.3337 13.3333V10.6666M13.3337 13.3333H10.667" stroke="#5D5F69" stroke-width="1.5" stroke-linecap="round" stroke-linejoin="round"/>
</svg>
