<svg width="14" height="16" viewBox="0 0 14 16" fill="none" xmlns="http://www.w3.org/2000/svg">
<path d="M9.00572 11.1071V12.9911C9.00572 13.3899 8.88965 13.5893 8.65751 13.5893C8.5206 13.5893 8.38667 13.5238 8.25572 13.3929V10.7054C8.38667 10.5744 8.5206 10.5089 8.65751 10.5089C8.88965 10.5089 9.00572 10.7083 9.00572 11.1071ZM12.0236 11.1161V11.5268H11.22V11.1161C11.22 10.7113 11.3539 10.5089 11.6218 10.5089C11.8896 10.5089 12.0236 10.7113 12.0236 11.1161ZM3.39858 9.16964H4.35393V8.33036H1.56822V9.16964H2.50572V14.25H3.39858V9.16964ZM5.97001 14.25H6.76465V9.83929H5.97001V13.2143C5.79143 13.4643 5.62179 13.5893 5.46108 13.5893C5.35393 13.5893 5.29143 13.5268 5.27358 13.4018C5.26762 13.3839 5.26465 13.2798 5.26465 13.0893V9.83929H4.47001V13.3304C4.47001 13.622 4.49382 13.8393 4.54143 13.9821C4.61286 14.2024 4.78548 14.3125 5.05929 14.3125C5.34501 14.3125 5.64858 14.131 5.97001 13.7679V14.25ZM9.80036 12.9286V11.1696C9.80036 10.7351 9.77358 10.4405 9.72001 10.2857C9.61882 9.95238 9.40751 9.78572 9.08608 9.78572C8.78846 9.78572 8.51167 9.94643 8.25572 10.2679V8.33036H7.46108V14.25H8.25572V13.8214C8.52358 14.1488 8.80036 14.3125 9.08608 14.3125C9.40751 14.3125 9.61882 14.1488 9.72001 13.8214C9.77358 13.6607 9.80036 13.3631 9.80036 12.9286ZM12.8182 12.8393V12.7232H12.0057C12.0057 13.0268 11.9998 13.2083 11.9879 13.2679C11.9462 13.4821 11.8271 13.5893 11.6307 13.5893C11.3569 13.5893 11.22 13.3839 11.22 12.9732V12.1964H12.8182V11.2768C12.8182 10.8065 12.7379 10.4613 12.5771 10.2411C12.345 9.9375 12.0295 9.78572 11.6307 9.78572C11.226 9.78572 10.9075 9.9375 10.6754 10.2411C10.5087 10.4613 10.4254 10.8065 10.4254 11.2768V12.8214C10.4254 13.2917 10.5117 13.6369 10.6843 13.8571C10.9164 14.1607 11.2379 14.3125 11.6486 14.3125C12.0771 14.3125 12.3986 14.1548 12.6129 13.8393C12.72 13.6786 12.7825 13.5179 12.8004 13.3571C12.8123 13.3036 12.8182 13.131 12.8182 12.8393ZM7.38965 4.6875V2.8125C7.38965 2.40179 7.26167 2.19643 7.00572 2.19643C6.74977 2.19643 6.62179 2.40179 6.62179 2.8125V4.6875C6.62179 5.10417 6.74977 5.3125 7.00572 5.3125C7.26167 5.3125 7.38965 5.10417 7.38965 4.6875ZM13.8093 11.3929C13.8093 12.7857 13.7319 13.8274 13.5771 14.5179C13.4938 14.869 13.3212 15.1637 13.0593 15.4018C12.7974 15.6399 12.4938 15.7768 12.1486 15.8125C11.0533 15.9375 9.40155 16 7.19322 16C4.98489 16 3.3331 15.9375 2.23786 15.8125C1.89262 15.7768 1.58757 15.6399 1.32268 15.4018C1.0578 15.1637 0.886672 14.869 0.809291 14.5179C0.654529 13.8512 0.577148 12.8095 0.577148 11.3929C0.577148 10 0.654529 8.95833 0.809291 8.26786C0.892625 7.91667 1.06524 7.62202 1.32715 7.38393C1.58905 7.14583 1.8956 7.00595 2.24679 6.96429C3.33608 6.84524 4.98489 6.78571 7.19322 6.78571C9.40155 6.78571 11.0533 6.84524 12.1486 6.96429C12.4938 7.00595 12.7989 7.14583 13.0638 7.38393C13.3286 7.62202 13.4998 7.91667 13.5771 8.26786C13.7319 8.93452 13.8093 9.97619 13.8093 11.3929ZM4.89858 0H5.80929L4.72893 3.5625V5.98214H3.83608V3.5625C3.75274 3.12202 3.5712 2.49107 3.29143 1.66964C3.0712 1.05655 2.87774 0.5 2.71108 0H3.65751L4.29143 2.34821L4.89858 0ZM8.20215 2.97321V4.53571C8.20215 5.01786 8.11882 5.36905 7.95215 5.58929C7.72596 5.89286 7.41048 6.04464 7.00572 6.04464C6.60691 6.04464 6.29441 5.89286 6.06822 5.58929C5.90155 5.3631 5.81822 5.01191 5.81822 4.53571V2.97321C5.81822 2.49702 5.90155 2.14881 6.06822 1.92857C6.29441 1.625 6.60691 1.47321 7.00572 1.47321C7.41048 1.47321 7.72596 1.625 7.95215 1.92857C8.11882 2.14881 8.20215 2.49702 8.20215 2.97321ZM11.1932 1.52679V5.98214H10.3807V5.49107C10.0652 5.86012 9.7587 6.04464 9.46108 6.04464C9.18727 6.04464 9.01167 5.93452 8.93429 5.71429C8.88667 5.57143 8.86286 5.34821 8.86286 5.04464V1.52679H9.67536V4.80357C9.67536 5 9.67834 5.10417 9.68429 5.11607C9.70215 5.24702 9.76465 5.3125 9.87179 5.3125C10.0325 5.3125 10.2021 5.18452 10.3807 4.92857V1.52679H11.1932Z" fill="url(#paint0_linear_464_1024)"/>
<defs>
<linearGradient id="paint0_linear_464_1024" x1="14.2573" y1="8.01085" x2="-1.02518" y2="8.01085" gradientUnits="userSpaceOnUse">
<stop stop-color="#187EC0"/>
<stop offset="1" stop-color="#005296"/>
</linearGradient>
</defs>
</svg>
