<svg width="368" height="293" viewBox="0 0 368 293" fill="none" xmlns="http://www.w3.org/2000/svg">
<path d="M295.737 96.1221C321.622 96.1221 342.606 75.1211 342.606 49.215C342.606 23.3089 321.622 2.30786 295.737 2.30786C269.851 2.30786 248.867 23.3089 248.867 49.215C248.867 75.1211 269.851 96.1221 295.737 96.1221Z" stroke="#313131" stroke-width="3" stroke-miterlimit="10"/>
<path d="M283.363 31.9532C287.09 31.9532 290.112 28.9289 290.112 25.1983C290.112 21.4676 287.09 18.4434 283.363 18.4434C279.635 18.4434 276.613 21.4676 276.613 25.1983C276.613 28.9289 279.635 31.9532 283.363 31.9532Z" stroke="#313131" stroke-width="3" stroke-miterlimit="10"/>
<path d="M305.488 79.2353C307.765 79.2353 309.612 77.3873 309.612 75.1076C309.612 72.828 307.765 70.98 305.488 70.98C303.21 70.98 301.363 72.828 301.363 75.1076C301.363 77.3873 303.21 79.2353 305.488 79.2353Z" stroke="#313131" stroke-width="3" stroke-miterlimit="10"/>
<path d="M246.024 45.4216C230.328 46.5397 220.371 47.6025 220.371 49.5586C220.371 53.0993 252.981 55.9694 293.206 55.9694C333.432 55.9694 366.041 53.0993 366.041 49.5586C366.041 47.8133 358.118 46.9814 345.266 45.8257" stroke="#313131" stroke-width="3" stroke-miterlimit="10" stroke-linecap="round"/>
<path opacity="0.5" d="M249.855 58.8388C261.968 59.6299 276.966 60.0974 293.206 60.0974C311.827 60.0974 328.816 59.4826 341.693 58.4705" stroke="#313131" stroke-width="3" stroke-miterlimit="10" stroke-linecap="round"/>
<path d="M267.453 119.777V130.734" stroke="#313131" stroke-width="3" stroke-miterlimit="10" stroke-linecap="round"/>
<path d="M262.32 125.255H272.584" stroke="#313131" stroke-width="3" stroke-miterlimit="10" stroke-linecap="round"/>
<path d="M79.7852 112.552V123.509" stroke="#313131" stroke-width="3" stroke-miterlimit="10" stroke-linecap="round"/>
<path d="M74.6523 118.031H84.9159" stroke="#313131" stroke-width="3" stroke-miterlimit="10" stroke-linecap="round"/>
<path d="M165.27 61.5854V72.5419" stroke="#313131" stroke-width="3" stroke-miterlimit="10" stroke-linecap="round"/>
<path d="M160.137 67.0637H170.4" stroke="#313131" stroke-width="3" stroke-miterlimit="10" stroke-linecap="round"/>
<path d="M103.594 242.607V253.563" stroke="#313131" stroke-width="3" stroke-miterlimit="10" stroke-linecap="round"/>
<path d="M108.725 248.085H98.4609" stroke="#313131" stroke-width="3" stroke-miterlimit="10" stroke-linecap="round"/>
<path d="M223.109 189.602V195.446" stroke="#313131" stroke-width="3" stroke-miterlimit="10" stroke-linecap="round"/>
<path d="M220.371 192.524H225.845" stroke="#313131" stroke-width="3" stroke-miterlimit="10" stroke-linecap="round"/>
<path d="M252.73 147.879V152.197" stroke="#313131" stroke-width="3" stroke-miterlimit="10" stroke-linecap="round"/>
<path d="M250.707 150.038H254.753" stroke="#313131" stroke-width="3" stroke-miterlimit="10" stroke-linecap="round"/>
<path d="M119.496 143.355V147.674" stroke="#313131" stroke-width="3" stroke-miterlimit="10" stroke-linecap="round"/>
<path d="M117.473 145.514H121.518" stroke="#313131" stroke-width="3" stroke-miterlimit="10" stroke-linecap="round"/>
<path d="M125.98 275.895V280.214" stroke="#313131" stroke-width="3" stroke-miterlimit="10" stroke-linecap="round"/>
<path d="M128.003 278.055H123.957" stroke="#313131" stroke-width="3" stroke-miterlimit="10" stroke-linecap="round"/>
<path d="M96.207 203.266V207.585" stroke="#313131" stroke-width="3" stroke-miterlimit="10" stroke-linecap="round"/>
<path d="M98.2294 205.426H94.1836" stroke="#313131" stroke-width="3" stroke-miterlimit="10" stroke-linecap="round"/>
<path d="M247.953 203.266V207.585" stroke="#313131" stroke-width="3" stroke-miterlimit="10" stroke-linecap="round"/>
<path d="M249.976 205.426H245.93" stroke="#313131" stroke-width="3" stroke-miterlimit="10" stroke-linecap="round"/>
<path d="M304.058 129.364C306.326 129.364 308.164 127.524 308.164 125.255C308.164 122.986 306.326 121.147 304.058 121.147C301.791 121.147 299.953 122.986 299.953 125.255C299.953 127.524 301.791 129.364 304.058 129.364Z" stroke="#313131" stroke-width="3" stroke-miterlimit="10" stroke-linecap="round"/>
<path d="M232.343 162.576C234.611 162.576 236.449 160.736 236.449 158.467C236.449 156.198 234.611 154.359 232.343 154.359C230.076 154.359 228.238 156.198 228.238 158.467C228.238 160.736 230.076 162.576 232.343 162.576Z" stroke="#313131" stroke-width="3" stroke-miterlimit="10" stroke-linecap="round"/>
<path d="M86.8826 179.881C89.1498 179.881 90.9878 178.041 90.9878 175.772C90.9878 173.503 89.1498 171.664 86.8826 171.664C84.6153 171.664 82.7773 173.503 82.7773 175.772C82.7773 178.041 84.6153 179.881 86.8826 179.881Z" stroke="#313131" stroke-width="3" stroke-miterlimit="10" stroke-linecap="round"/>
<path d="M221.738 101.054C224.005 101.054 225.843 99.2148 225.843 96.9457C225.843 94.6766 224.005 92.8372 221.738 92.8372C219.471 92.8372 217.633 94.6766 217.633 96.9457C217.633 99.2148 219.471 101.054 221.738 101.054Z" stroke="#313131" stroke-width="3" stroke-miterlimit="10" stroke-linecap="round"/>
<path d="M103.593 88.2036C105.861 88.2036 107.699 86.3642 107.699 84.0951C107.699 81.826 105.861 79.9866 103.593 79.9866C101.326 79.9866 99.4883 81.826 99.4883 84.0951C99.4883 86.3642 101.326 88.2036 103.593 88.2036Z" stroke="#313131" stroke-width="3" stroke-miterlimit="10" stroke-linecap="round"/>
<path d="M68.8357 243.566C71.1029 243.566 72.9409 241.726 72.9409 239.457C72.9409 237.188 71.1029 235.349 68.8357 235.349C66.5684 235.349 64.7305 237.188 64.7305 239.457C64.7305 241.726 66.5684 243.566 68.8357 243.566Z" stroke="#313131" stroke-width="3" stroke-miterlimit="10" stroke-linecap="round"/>
<path d="M146.367 290.592C148.634 290.592 150.472 288.753 150.472 286.484C150.472 284.215 148.634 282.375 146.367 282.375C144.1 282.375 142.262 284.215 142.262 286.484C142.262 288.753 144.1 290.592 146.367 290.592Z" stroke="#313131" stroke-width="3" stroke-miterlimit="10" stroke-linecap="round"/>
<path d="M213.527 246.342C215.794 246.342 217.632 244.502 217.632 242.233C217.632 239.964 215.794 238.125 213.527 238.125C211.26 238.125 209.422 239.964 209.422 242.233C209.422 244.502 211.26 246.342 213.527 246.342Z" stroke="#313131" stroke-width="3" stroke-miterlimit="10" stroke-linecap="round"/>
<path d="M283.872 147.511C284.628 147.511 285.241 146.898 285.241 146.141C285.241 145.385 284.628 144.771 283.872 144.771C283.117 144.771 282.504 145.385 282.504 146.141C282.504 146.898 283.117 147.511 283.872 147.511Z" fill="#313131"/>
<path d="M130.755 112.81C131.511 112.81 132.124 112.197 132.124 111.441C132.124 110.684 131.511 110.071 130.755 110.071C129.999 110.071 129.387 110.684 129.387 111.441C129.387 112.197 129.999 112.81 130.755 112.81Z" fill="#313131"/>
<path d="M224.474 130.734C225.23 130.734 225.843 130.121 225.843 129.364C225.843 128.608 225.23 127.995 224.474 127.995C223.718 127.995 223.105 128.608 223.105 129.364C223.105 130.121 223.718 130.734 224.474 130.734Z" fill="#313131"/>
<path d="M94.8334 275.527C95.5893 275.527 96.202 274.914 96.202 274.158C96.202 273.401 95.5893 272.788 94.8334 272.788C94.0776 272.788 93.4648 273.401 93.4648 274.158C93.4648 274.914 94.0776 275.527 94.8334 275.527Z" fill="#313131"/>
<path d="M197.47 268.68C198.226 268.68 198.839 268.067 198.839 267.31C198.839 266.554 198.226 265.941 197.47 265.941C196.714 265.941 196.102 266.554 196.102 267.31C196.102 268.067 196.714 268.68 197.47 268.68Z" fill="#313131"/>
<path d="M67.4662 152.267C68.2221 152.267 68.8348 151.654 68.8348 150.898C68.8348 150.141 68.2221 149.528 67.4662 149.528C66.7104 149.528 66.0977 150.141 66.0977 150.898C66.0977 151.654 66.7104 152.267 67.4662 152.267Z" fill="#313131"/>
<path d="M247.951 240.827C248.706 240.827 249.319 240.214 249.319 239.457C249.319 238.701 248.706 238.088 247.951 238.088C247.195 238.088 246.582 238.701 246.582 239.457C246.582 240.214 247.195 240.827 247.951 240.827Z" fill="#313131"/>
<path d="M141.355 205.334C141.355 205.334 113.206 225.743 81.8109 225.08C80.6338 225.055 79.2678 224.956 77.763 224.797C42.6384 221.088 8.43679 202.083 -8.62115 171.131C-9.0899 170.28 -9.54678 169.426 -9.99127 168.566C-19.4877 150.219 -29.2262 125.484 -26.55 107.177" stroke="#313131" stroke-width="3" stroke-miterlimit="10" stroke-linecap="round" stroke-linejoin="round"/>
<path d="M174.575 227.923L141.16 218.957C135.437 217.421 132.041 211.533 133.576 205.805L141.678 175.561C143.685 168.067 151.383 163.621 158.87 165.63L185.895 172.882C193.383 174.891 197.826 182.594 195.818 190.088L187.716 220.332C186.182 226.06 180.299 229.458 174.575 227.923Z" fill="white" stroke="#313131" stroke-width="3" stroke-miterlimit="10" stroke-linecap="round" stroke-linejoin="round"/>
<path d="M166.954 115.256L152.441 175.772" stroke="#313131" stroke-width="3" stroke-miterlimit="10" stroke-linecap="round" stroke-linejoin="round"/>
<path d="M167.092 118.029C168.91 118.029 170.383 116.555 170.383 114.736C170.383 112.917 168.91 111.442 167.092 111.442C165.274 111.442 163.801 112.917 163.801 114.736C163.801 116.555 165.274 118.029 167.092 118.029Z" fill="white" stroke="#313131" stroke-width="3" stroke-miterlimit="10" stroke-linecap="round" stroke-linejoin="round"/>
<path d="M186.176 180.57C186.874 181.118 188.711 183.183 189.182 183.998L203.572 208.609C205.563 212.044 204.393 216.444 200.961 218.436C197.528 220.428 193.132 219.257 191.142 215.822L188.249 210.829" fill="white"/>
<path d="M186.176 180.57C186.874 181.118 188.711 183.183 189.182 183.998L203.572 208.609C205.563 212.044 204.393 216.444 200.961 218.436C197.528 220.428 193.132 219.257 191.142 215.822L188.249 210.829" stroke="#313131" stroke-width="3" stroke-miterlimit="10" stroke-linecap="round" stroke-linejoin="round"/>
<path d="M200.698 217.583C203.4 216.013 204.69 212.951 204.146 210.043C205.356 210.737 206.409 211.742 207.159 213.036C209.436 216.961 208.104 221.99 204.182 224.269C200.261 226.548 195.235 225.214 192.958 221.289C192.053 219.728 191.504 218.283 191.676 216.615C193.916 218.967 197.769 219.286 200.698 217.583Z" fill="white" stroke="#313131" stroke-width="3" stroke-miterlimit="10" stroke-linecap="round" stroke-linejoin="round"/>
<path d="M155.545 172.625C154.666 172.75 152.494 173.465 151.677 173.935L126.915 188.04C123.475 190.019 122.288 194.413 124.265 197.856C126.241 201.3 130.633 202.487 134.073 200.509L139.073 197.634" fill="white"/>
<path d="M155.545 172.625C154.666 172.75 152.494 173.465 151.677 173.935L126.915 188.04C123.475 190.019 122.288 194.413 124.265 197.856C126.241 201.3 130.633 202.487 134.073 200.509L139.073 197.634" stroke="#313131" stroke-width="3" stroke-miterlimit="10" stroke-linecap="round" stroke-linejoin="round"/>
<path d="M124.921 197.251C123.366 194.538 123.781 191.242 125.705 188.996C124.31 188.991 122.896 189.335 121.599 190.079C117.666 192.337 116.306 197.359 118.562 201.296C120.819 205.232 125.836 206.593 129.77 204.335C131.334 203.438 132.532 202.461 133.216 200.931C130.102 201.844 126.607 200.192 124.921 197.251Z" fill="white" stroke="#313131" stroke-width="3" stroke-miterlimit="10" stroke-linecap="round" stroke-linejoin="round"/>
<path d="M182.415 181.783C178.312 182.436 174.027 182.263 169.777 181.123C165.528 179.983 161.731 177.987 158.505 175.367C149.726 177.541 142.362 184.3 139.854 193.663L139.144 196.31C135.473 210.015 143.593 224.102 157.28 227.774C170.967 231.447 185.039 223.315 188.711 209.61L189.42 206.963C191.928 197.6 188.93 188.06 182.415 181.783Z" fill="white" stroke="#313131" stroke-width="3" stroke-miterlimit="10" stroke-linecap="round" stroke-linejoin="round"/>
<path d="M139.219 197.038C152.796 207.703 170.015 212.323 187.285 210.329L188.534 210.27" stroke="#313131" stroke-width="3" stroke-miterlimit="10" stroke-linecap="round" stroke-linejoin="round"/>
<path d="M161.563 228.979L154.173 256.567C153.194 260.22 155.36 263.975 159.01 264.954C162.66 265.934 166.412 263.767 167.391 260.113L176.6 225.737C172.143 228.541 167.019 229.317 161.563 228.979Z" fill="white" stroke="#313131" stroke-width="3" stroke-miterlimit="10" stroke-linecap="round" stroke-linejoin="round"/>
<path d="M157.395 244.539L170.613 248.085" stroke="#313131" stroke-width="3" stroke-miterlimit="10" stroke-linecap="round" stroke-linejoin="round"/>
<path d="M152.972 226.675L145.582 254.261C144.603 257.914 140.851 260.082 137.201 259.103C133.551 258.123 131.386 254.368 132.364 250.715L141.573 216.339C144.03 220.998 148.079 224.234 152.972 226.675Z" fill="white" stroke="#313131" stroke-width="3" stroke-miterlimit="10" stroke-linecap="round" stroke-linejoin="round"/>
<path d="M135.586 238.687L148.803 242.233" stroke="#313131" stroke-width="3" stroke-miterlimit="10" stroke-linecap="round" stroke-linejoin="round"/>
<path d="M206.274 163.933C210.85 146.856 201.096 129.399 184.488 124.942C167.88 120.485 150.708 130.716 146.132 147.794C141.557 164.871 151.311 182.328 167.918 186.785C184.526 191.242 201.699 181.011 206.274 163.933Z" fill="white" stroke="#313131" stroke-width="3" stroke-miterlimit="10" stroke-linecap="round" stroke-linejoin="round"/>
<path d="M170.812 128.025C166.719 128.913 162.872 130.735 159.559 133.318" stroke="#313131" stroke-width="3" stroke-miterlimit="10" stroke-linecap="round" stroke-linejoin="round"/>
<path d="M196.619 171.852C195.976 174.255 194.209 176.202 191.872 177.049C187.054 178.794 178.346 181.088 170.034 178.858C161.722 176.627 155.329 170.281 152.029 166.358C150.428 164.455 149.872 161.884 150.516 159.481L154.364 145.119C154.754 143.662 156.006 142.604 157.507 142.468C160.994 142.153 168.114 142.154 179.078 145.096C190.043 148.039 196.208 151.602 199.07 153.62C200.302 154.489 200.857 156.032 200.466 157.489L196.619 171.852Z" fill="white" stroke="#313131" stroke-width="3" stroke-miterlimit="10" stroke-linecap="round" stroke-linejoin="round"/>
<path d="M143.743 187.06L197.726 129.439L188.118 123.003L136.707 181.546L143.743 187.06Z" stroke="#313131" stroke-width="3" stroke-miterlimit="10"/>
</svg>
