<svg width="12" height="12" viewBox="0 0 12 12" fill="none" xmlns="http://www.w3.org/2000/svg">
<path d="M6.59984 0.166672C7.25609 0.168422 7.58917 0.171922 7.87676 0.180088L7.98992 0.184172C8.12059 0.188838 8.24951 0.194672 8.40526 0.201672C9.02592 0.230838 9.44942 0.328838 9.82101 0.472922C10.206 0.621088 10.5303 0.821755 10.8547 1.14551C11.1513 1.43711 11.3808 1.78985 11.5273 2.17917C11.6713 2.55076 11.7693 2.97425 11.7985 3.5955C11.8055 3.75067 11.8113 3.87959 11.816 4.01084L11.8195 4.12401C11.8283 4.41101 11.8318 4.74409 11.8329 5.40034L11.8335 5.83551V6.59967C11.8349 7.02516 11.8305 7.45064 11.8201 7.876L11.8166 7.98917C11.8119 8.12042 11.8061 8.24934 11.7991 8.4045C11.7699 9.02575 11.6708 9.44867 11.5273 9.82084C11.3812 10.2104 11.1517 10.5632 10.8547 10.8545C10.563 11.151 10.2103 11.3805 9.82101 11.5271C9.44942 11.6712 9.02592 11.7692 8.40526 11.7983C8.26684 11.8049 8.1284 11.8107 7.98992 11.8158L7.87676 11.8193C7.58917 11.8275 7.25609 11.8316 6.59984 11.8328L6.16467 11.8333H5.40109C4.97541 11.8348 4.54973 11.8303 4.12417 11.8199L4.01101 11.8164C3.87253 11.8112 3.73408 11.8051 3.59567 11.7983C2.97501 11.7692 2.55151 11.6712 2.17934 11.5271C1.79006 11.3809 1.43747 11.1513 1.14626 10.8545C0.849367 10.563 0.619638 10.2102 0.473091 9.82084C0.329007 9.44925 0.231007 9.02575 0.20184 8.4045C0.195341 8.26609 0.189508 8.12764 0.18434 7.98917L0.181424 7.876C0.170674 7.45065 0.165813 7.02516 0.16684 6.59967V5.40034C0.165212 4.97485 0.169491 4.54937 0.179674 4.12401L0.183757 4.01084C0.188424 3.87959 0.194257 3.75067 0.201257 3.5955C0.230424 2.97425 0.328424 2.55134 0.472507 2.17917C0.61899 1.78945 0.849177 1.4366 1.14684 1.14551C1.43798 0.848865 1.79034 0.619331 2.17934 0.472922C2.55151 0.328838 2.97442 0.230838 3.59567 0.201672C3.75084 0.194672 3.88034 0.188838 4.01101 0.184172L4.12417 0.180672C4.54954 0.170307 4.97502 0.165835 5.40051 0.167255L6.59984 0.166672ZM6.00017 3.08334C5.22663 3.08334 4.48476 3.39063 3.93778 3.93761C3.3908 4.48459 3.08351 5.22646 3.08351 6C3.08351 6.77355 3.3908 7.51542 3.93778 8.0624C4.48476 8.60938 5.22663 8.91667 6.00017 8.91667C6.77372 8.91667 7.51559 8.60938 8.06257 8.0624C8.60955 7.51542 8.91684 6.77355 8.91684 6C8.91684 5.22646 8.60955 4.48459 8.06257 3.93761C7.51559 3.39063 6.77372 3.08334 6.00017 3.08334ZM6.00017 4.25C6.22999 4.24997 6.45756 4.29519 6.66989 4.3831C6.88223 4.47101 7.07517 4.59989 7.2377 4.76236C7.40023 4.92484 7.52916 5.11773 7.61714 5.33004C7.70512 5.54234 7.75043 5.7699 7.75046 5.99971C7.7505 6.22953 7.70528 6.4571 7.61737 6.66943C7.52946 6.88177 7.40058 7.07471 7.23811 7.23724C7.07563 7.39977 6.88274 7.5287 6.67043 7.61668C6.45813 7.70466 6.23057 7.74997 6.00076 7.75C5.53663 7.75 5.09151 7.56563 4.76332 7.23744C4.43513 6.90925 4.25076 6.46413 4.25076 6C4.25076 5.53588 4.43513 5.09076 4.76332 4.76257C5.09151 4.43438 5.53663 4.25 6.00076 4.25M9.06326 2.20834C8.86987 2.20834 8.6844 2.28516 8.54766 2.42191C8.41091 2.55865 8.33409 2.74412 8.33409 2.93751C8.33409 3.13089 8.41091 3.31636 8.54766 3.4531C8.6844 3.58985 8.86987 3.66667 9.06326 3.66667C9.25664 3.66667 9.44211 3.58985 9.57886 3.4531C9.7156 3.31636 9.79242 3.13089 9.79242 2.93751C9.79242 2.74412 9.7156 2.55865 9.57886 2.42191C9.44211 2.28516 9.25664 2.20834 9.06326 2.20834Z" fill="#313131"/>
</svg>
