<svg width="14" height="14" viewBox="0 0 14 14" fill="none" xmlns="http://www.w3.org/2000/svg">
<path d="M7.59984 1.16663C8.25609 1.16838 8.58917 1.17188 8.87676 1.18004L8.98992 1.18413C9.12059 1.18879 9.24951 1.19463 9.40526 1.20163C10.0259 1.23079 10.4494 1.32879 10.821 1.47288C11.206 1.62104 11.5303 1.82171 11.8547 2.14546C12.1513 2.43707 12.3808 2.7898 12.5273 3.17913C12.6713 3.55071 12.7693 3.97421 12.7985 4.59546C12.8055 4.75063 12.8113 4.87954 12.816 5.01079L12.8195 5.12396C12.8283 5.41096 12.8318 5.74404 12.8329 6.40029L12.8335 6.83546V7.59963C12.8349 8.02511 12.8305 8.4506 12.8201 8.87596L12.8166 8.98913C12.8119 9.12038 12.8061 9.24929 12.7991 9.40446C12.7699 10.0257 12.6708 10.4486 12.5273 10.8208C12.3812 11.2103 12.1517 11.5632 11.8547 11.8545C11.563 12.151 11.2103 12.3805 10.821 12.527C10.4494 12.6711 10.0259 12.7691 9.40526 12.7983C9.26684 12.8048 9.1284 12.8106 8.98992 12.8158L8.87676 12.8193C8.58917 12.8275 8.25609 12.8315 7.59984 12.8327L7.16467 12.8333H6.40109C5.97541 12.8348 5.54973 12.8303 5.12417 12.8199L5.01101 12.8164C4.87253 12.8111 4.73408 12.8051 4.59567 12.7983C3.97501 12.7691 3.55151 12.6711 3.17934 12.527C2.79006 12.3808 2.43747 12.1513 2.14626 11.8545C1.84937 11.563 1.61964 11.2102 1.47309 10.8208C1.32901 10.4492 1.23101 10.0257 1.20184 9.40446C1.19534 9.26604 1.18951 9.1276 1.18434 8.98913L1.18142 8.87596C1.17067 8.4506 1.16581 8.02512 1.16684 7.59963V6.40029C1.16521 5.97481 1.16949 5.54932 1.17967 5.12396L1.18376 5.01079C1.18842 4.87954 1.19426 4.75063 1.20126 4.59546C1.23042 3.97421 1.32842 3.55129 1.47251 3.17913C1.61899 2.7894 1.84918 2.43656 2.14684 2.14546C2.43798 1.84882 2.79034 1.61929 3.17934 1.47288C3.55151 1.32879 3.97442 1.23079 4.59567 1.20163C4.75084 1.19463 4.88034 1.18879 5.01101 1.18413L5.12417 1.18063C5.54954 1.17026 5.97502 1.16579 6.40051 1.16721L7.59984 1.16663ZM7.00017 4.08329C6.22663 4.08329 5.48476 4.39058 4.93778 4.93756C4.3908 5.48455 4.08351 6.22641 4.08351 6.99996C4.08351 7.77351 4.3908 8.51537 4.93778 9.06235C5.48476 9.60933 6.22663 9.91663 7.00017 9.91663C7.77372 9.91663 8.51559 9.60933 9.06257 9.06235C9.60955 8.51537 9.91684 7.77351 9.91684 6.99996C9.91684 6.22641 9.60955 5.48455 9.06257 4.93756C8.51559 4.39058 7.77372 4.08329 7.00017 4.08329ZM7.00017 5.24996C7.22999 5.24992 7.45756 5.29515 7.66989 5.38306C7.88223 5.47097 8.07517 5.59984 8.2377 5.76232C8.40023 5.92479 8.52916 6.11769 8.61714 6.32999C8.70512 6.5423 8.75043 6.76985 8.75046 6.99967C8.7505 7.22948 8.70528 7.45705 8.61737 7.66939C8.52946 7.88172 8.40058 8.07466 8.23811 8.23719C8.07563 8.39972 7.88274 8.52866 7.67043 8.61664C7.45813 8.70462 7.23057 8.74992 7.00076 8.74996C6.53663 8.74996 6.09151 8.56558 5.76332 8.2374C5.43513 7.90921 5.25076 7.46409 5.25076 6.99996C5.25076 6.53583 5.43513 6.09071 5.76332 5.76252C6.09151 5.43433 6.53663 5.24996 7.00076 5.24996M10.0633 3.20829C9.86987 3.20829 9.6844 3.28512 9.54766 3.42186C9.41091 3.55861 9.33409 3.74407 9.33409 3.93746C9.33409 4.13085 9.41091 4.31631 9.54766 4.45306C9.6844 4.5898 9.86987 4.66663 10.0633 4.66663C10.2566 4.66663 10.4421 4.5898 10.5789 4.45306C10.7156 4.31631 10.7924 4.13085 10.7924 3.93746C10.7924 3.74407 10.7156 3.55861 10.5789 3.42186C10.4421 3.28512 10.2566 3.20829 10.0633 3.20829Z" fill="white"/>
</svg>
