<svg width="12" height="10" viewBox="0 0 12 10" fill="none" xmlns="http://www.w3.org/2000/svg">
<path d="M1.33317 9.66666C1.01234 9.66666 0.737782 9.55252 0.509504 9.32425C0.281226 9.09597 0.166893 8.82122 0.166504 8.5V1.49999C0.166504 1.17916 0.280837 0.904606 0.509504 0.676328C0.738171 0.44805 1.01273 0.333717 1.33317 0.333328H10.6665C10.9873 0.333328 11.2621 0.447661 11.4908 0.676328C11.7194 0.904995 11.8336 1.17955 11.8332 1.49999V8.5C11.8332 8.82083 11.719 9.09558 11.4908 9.32425C11.2625 9.55291 10.9877 9.66705 10.6665 9.66666H1.33317ZM5.99984 5.58333L10.6665 2.66666V1.49999L5.99984 4.41666L1.33317 1.49999V2.66666L5.99984 5.58333Z" fill="#313131"/>
</svg>
