<svg width="72" height="72" viewBox="0 0 72 72" fill="none" xmlns="http://www.w3.org/2000/svg">
<g filter="url(#filter0_d_126_10801)">
<rect x="4" width="64" height="64" rx="32" fill="white" shape-rendering="crispEdges"/>
<path fill-rule="evenodd" clip-rule="evenodd" d="M39.4532 19.1187C38.3518 18.8241 37.1945 18.6667 35.9998 18.6667C28.6358 18.6667 22.6665 24.6361 22.6665 32.0001C22.6665 39.3641 28.6358 45.3334 35.9998 45.3334C43.3638 45.3334 49.3332 39.3641 49.3332 32.0001C49.3332 30.8054 49.1758 29.6481 48.8812 28.5467L46.0465 31.3801C45.8287 31.5979 45.591 31.7867 45.3332 31.9467V32.0001C45.3332 33.846 44.7858 35.6505 43.7602 37.1854C42.7347 38.7203 41.277 39.9165 39.5716 40.623C37.8661 41.3294 35.9895 41.5142 34.179 41.1541C32.3685 40.794 30.7055 39.905 29.4002 38.5997C28.0949 37.2945 27.206 35.6314 26.8458 33.8209C26.4857 32.0104 26.6705 30.1338 27.377 28.4284C28.0834 26.7229 29.2797 25.2653 30.8145 24.2397C32.3494 23.2141 34.1539 22.6667 35.9998 22.6667H36.0532C36.2138 22.4078 36.4035 22.168 36.6185 21.9521L39.4532 19.1187ZM35.4362 26.4581C35.442 26.0898 35.4478 25.7221 35.4478 25.3561C34.1807 25.4614 32.9701 25.9269 31.9589 26.6976C30.9476 27.4684 30.1779 28.5123 29.7404 29.7061C29.303 30.9 29.216 32.1941 29.4899 33.4357C29.7637 34.6774 30.387 35.8148 31.286 36.7139C32.1851 37.613 33.3226 38.2362 34.5642 38.51C35.8059 38.7839 37.0999 38.697 38.2938 38.2595C39.4877 37.822 40.5315 37.0523 41.3023 36.041C42.073 35.0298 42.5385 33.8192 42.6438 32.5521C42.2772 32.5521 41.9092 32.5579 41.5408 32.5638C40.7677 32.576 39.9928 32.5883 39.2252 32.5467L38.5052 33.2667C38.2575 33.5144 37.9635 33.7109 37.6399 33.8449C37.3163 33.979 36.9694 34.048 36.6192 34.048C36.2689 34.048 35.9221 33.979 35.5985 33.8449C35.2749 33.7109 34.9808 33.5144 34.7332 33.2667C34.4855 33.0191 34.289 32.725 34.155 32.4014C34.021 32.0778 33.952 31.731 33.952 31.3807C33.952 31.0305 34.021 30.6837 34.155 30.3601C34.289 30.0365 34.4855 29.7424 34.7332 29.4947L35.4532 28.7747C35.4116 28.007 35.4239 27.2313 35.4362 26.4581ZM45.2696 19.3268C45.1232 19.1077 44.9152 18.937 44.6718 18.8361V18.8347C44.4281 18.7338 44.16 18.7074 43.9013 18.7589C43.6426 18.8104 43.405 18.9375 43.2185 19.1241L38.5052 23.8374C38.3812 23.9614 38.2829 24.1085 38.2158 24.2705C38.1488 24.4325 38.1144 24.6061 38.1145 24.7814V28.0001L35.6758 30.4361C35.4256 30.6863 35.2851 31.0256 35.2851 31.3794C35.2851 31.7332 35.4256 32.0726 35.6758 32.3227C35.926 32.5729 36.2654 32.7135 36.6192 32.7135C36.973 32.7135 37.3123 32.5729 37.5625 32.3227L39.9998 29.8841H43.2172C43.5708 29.884 43.9098 29.7435 44.1598 29.4934L48.8758 24.7827C49.0623 24.5963 49.1892 24.3587 49.2406 24.1001C49.292 23.8415 49.2656 23.5735 49.1647 23.3299C49.0639 23.0863 48.893 22.8781 48.6738 22.7315C48.4546 22.585 48.1968 22.5068 47.9332 22.5067H45.4945V20.0667C45.4943 19.8033 45.4161 19.5458 45.2696 19.3268ZM36.7757 47.0133L36.7904 47.0107C36.802 47.0124 36.8095 47.0204 36.8131 47.0347L36.8357 47.604L36.8304 47.6267L36.8144 47.648L36.6757 47.7467L36.6597 47.752L36.6397 47.7467L36.5011 47.648L36.4877 47.6307L36.4811 47.604L36.5037 47.0333L36.5091 47.02C36.5162 47.0111 36.5269 47.0089 36.5411 47.0133L36.6357 47.06L36.6544 47.0653L36.6811 47.06L36.7757 47.0133ZM37.1264 46.8627L37.1437 46.86C37.1571 46.8636 37.166 46.8733 37.1704 46.8893L37.2157 47.708L37.2104 47.7267C37.2015 47.7382 37.1886 47.7418 37.1717 47.7373L36.9037 47.6133L36.8931 47.604L36.8864 47.588L36.8624 47.0147L36.8664 47L36.8797 46.9867L37.1264 46.8627ZM36.1708 46.8594C36.1775 46.858 36.1845 46.8591 36.1904 46.8627L36.4357 46.9853L36.4491 46.9987L36.4531 47.0147L36.4304 47.588L36.4251 47.6027L36.4117 47.6133L36.1437 47.7373L36.1237 47.74C36.1095 47.7347 36.102 47.724 36.1011 47.708L36.1464 46.8893L36.1544 46.8707C36.1582 46.865 36.1641 46.8609 36.1708 46.8594Z" fill="#E0630A"/>
</g>
<defs>
<filter id="filter0_d_126_10801" x="0" y="0" width="72" height="72" filterUnits="userSpaceOnUse" color-interpolation-filters="sRGB">
<feFlood flood-opacity="0" result="BackgroundImageFix"/>
<feColorMatrix in="SourceAlpha" type="matrix" values="0 0 0 0 0 0 0 0 0 0 0 0 0 0 0 0 0 0 127 0" result="hardAlpha"/>
<feOffset dy="4"/>
<feGaussianBlur stdDeviation="2"/>
<feComposite in2="hardAlpha" operator="out"/>
<feColorMatrix type="matrix" values="0 0 0 0 0 0 0 0 0 0 0 0 0 0 0 0 0 0 0.05 0"/>
<feBlend mode="normal" in2="BackgroundImageFix" result="effect1_dropShadow_126_10801"/>
<feBlend mode="normal" in="SourceGraphic" in2="effect1_dropShadow_126_10801" result="shape"/>
</filter>
</defs>
</svg>
