<svg width="11" height="12" viewBox="0 0 11 12" fill="none" xmlns="http://www.w3.org/2000/svg">
<path fill-rule="evenodd" clip-rule="evenodd" d="M0.779625 1.17334C0.797629 1.02196 0.850698 0.876879 0.934613 0.749614C1.01853 0.62235 1.13097 0.516416 1.26301 0.440234C1.39505 0.364053 1.54304 0.319724 1.69522 0.310773C1.8474 0.301822 1.99957 0.328495 2.13963 0.388671C2.84763 0.691338 4.43429 1.41067 6.44763 2.57267C8.46163 3.73534 9.87829 4.75067 10.4936 5.21134C11.019 5.60534 11.0203 6.38667 10.4943 6.782C9.88496 7.24001 8.48562 8.242 6.44763 9.41934C4.40762 10.5967 2.83963 11.3073 2.13829 11.606C1.53429 11.864 0.858292 11.4727 0.779625 10.8213C0.687625 10.06 0.515625 8.33134 0.515625 5.99667C0.515625 3.66334 0.686959 1.93534 0.779625 1.17334Z" fill="#5D5F69"/>
</svg>
