<svg width="41" height="40" viewBox="0 0 41 40" fill="none" xmlns="http://www.w3.org/2000/svg">
<path d="M33.9167 35C34.4167 35 34.8334 34.8333 35.1667 34.5C35.5 34.1667 35.6667 33.75 35.6667 33.25V26.5C35.6667 26.1389 35.5417 25.8128 35.2917 25.5217C35.0417 25.2306 34.7222 25.0289 34.3334 24.9167L28.5834 23.75C28.1945 23.6944 27.7984 23.7294 27.395 23.855C26.9917 23.9806 26.6656 24.1678 26.4167 24.4167L22.5 28.3333C21.4445 27.7222 20.4445 27.0483 19.5 26.3117C18.5556 25.575 17.6528 24.7767 16.7917 23.9167C15.875 23.0278 15.0345 22.1044 14.27 21.1467C13.5056 20.1889 12.8461 19.1956 12.2917 18.1667L16.3334 14.0833C16.5556 13.8611 16.7084 13.5972 16.7917 13.2917C16.875 12.9861 16.8889 12.6111 16.8334 12.1667L15.75 6.33333C15.6945 5.97222 15.5139 5.66 15.2084 5.39667C14.9028 5.13333 14.5556 5.00111 14.1667 5H7.41669C6.91669 5 6.50002 5.16667 6.16669 5.5C5.83335 5.83333 5.66669 6.25 5.66669 6.75C5.66669 10.2222 6.42335 13.6528 7.93669 17.0417C9.45002 20.4306 11.5961 23.5139 14.375 26.2917C17.1539 29.0694 20.2372 31.2156 23.625 32.73C27.0128 34.2444 30.4434 35.0011 33.9167 35Z" fill="#E0630A"/>
</svg>
