<svg width="20" height="20" viewBox="0 0 20 20" fill="none" xmlns="http://www.w3.org/2000/svg">
<path d="M16.625 17.5C16.875 17.5 17.0833 17.4167 17.25 17.25C17.4167 17.0833 17.5 16.875 17.5 16.625V13.25C17.5 13.0694 17.4375 12.9064 17.3125 12.7608C17.1875 12.6153 17.0278 12.5144 16.8333 12.4583L13.9583 11.875C13.7639 11.8472 13.5658 11.8647 13.3642 11.9275C13.1625 11.9903 12.9994 12.0839 12.875 12.2083L10.9167 14.1667C10.3889 13.8611 9.88889 13.5242 9.41667 13.1558C8.94444 12.7875 8.49306 12.3883 8.0625 11.9583C7.60417 11.5139 7.18389 11.0522 6.80167 10.5733C6.41944 10.0944 6.08972 9.59778 5.8125 9.08333L7.83333 7.04167C7.94444 6.93056 8.02083 6.79861 8.0625 6.64583C8.10417 6.49306 8.11111 6.30556 8.08333 6.08333L7.54167 3.16667C7.51389 2.98611 7.42361 2.83 7.27083 2.69833C7.11806 2.56667 6.94444 2.50056 6.75 2.5H3.375C3.125 2.5 2.91667 2.58333 2.75 2.75C2.58333 2.91667 2.5 3.125 2.5 3.375C2.5 5.11111 2.87833 6.82639 3.635 8.52083C4.39167 10.2153 5.46472 11.7569 6.85417 13.1458C8.24361 14.5347 9.78528 15.6078 11.4792 16.365C13.1731 17.1222 14.8883 17.5006 16.625 17.5Z" fill="#E0630A"/>
</svg>
