<svg width="222" height="71" viewBox="0 0 222 71" fill="none" xmlns="http://www.w3.org/2000/svg">
<path d="M0.565705 42.4961C0.312245 42.6057 0.195628 42.9001 0.305232 43.1535C0.414836 43.407 0.709157 43.5236 0.962616 43.414L0.565705 42.4961ZM34.9179 29.445L35.0778 29.9188L34.9179 29.445ZM69.789 20.797L69.7329 20.3001L69.789 20.797ZM88.5994 22.2715L88.3863 22.7239L88.5994 22.2715ZM101.193 39.0495L101.688 39.122L101.193 39.0495ZM72.2598 42.9551L72.4751 42.5038L72.2598 42.9551ZM76.6038 25.3801L76.2365 25.0407L76.6038 25.3801ZM136.502 1.22934L136.459 1.72749L136.502 1.22934ZM220.234 70.7128C220.51 70.734 220.75 70.528 220.771 70.2526L221.116 65.7659C221.137 65.4906 220.931 65.2502 220.656 65.229C220.381 65.2078 220.14 65.4139 220.119 65.6892L219.812 69.6774L215.824 69.3706C215.549 69.3494 215.308 69.5555 215.287 69.8308C215.266 70.1061 215.472 70.3465 215.747 70.3677L220.234 70.7128ZM0.962616 43.414C12.2117 38.5495 23.4716 33.8368 35.0778 29.9188L34.758 28.9713C23.1104 32.9033 11.8188 37.63 0.565705 42.4961L0.962616 43.414ZM35.0778 29.9188C46.4129 26.0923 57.9572 22.6352 69.845 21.2938L69.7329 20.3001C57.7343 21.654 46.1067 25.1402 34.758 28.9713L35.0778 29.9188ZM69.845 21.2938C75.8162 20.6201 82.9042 20.1409 88.3863 22.7239L88.8125 21.8192C83.0397 19.0993 75.6753 19.6297 69.7329 20.3001L69.845 21.2938ZM88.3863 22.7239C90.768 23.846 94.0892 26.4368 96.7012 29.5239C98.0041 31.0636 99.1158 32.7098 99.8447 34.338C100.575 35.9691 100.907 37.55 100.698 38.977L101.688 39.122C101.933 37.4434 101.534 35.6642 100.757 33.9294C99.9795 32.1917 98.8087 30.4664 97.4646 28.8779C94.7829 25.7085 91.3524 23.0159 88.8125 21.8192L88.3863 22.7239ZM100.698 38.977C100.386 41.1057 98.9211 42.5808 96.6769 43.5561C94.4225 44.5358 91.448 44.976 88.2966 45.041C85.1532 45.1058 81.8733 44.7966 79.0327 44.3052C76.1821 43.812 73.8131 43.1422 72.4751 42.5038L72.0445 43.4063C73.5049 44.1031 75.9791 44.7918 78.8622 45.2905C81.7553 45.791 85.0998 46.1071 88.3172 46.0408C91.5268 45.9746 94.6498 45.5274 97.0754 44.4732C99.5111 43.4147 101.308 41.7096 101.688 39.122L100.698 38.977ZM72.4751 42.5038C70.76 41.6855 70.0325 40.4813 69.8872 39.0848C69.737 37.6427 70.2045 35.9432 71.0226 34.1919C72.655 30.6977 75.5656 27.2403 76.971 25.7194L76.2365 25.0407C74.8109 26.5835 71.8155 30.132 70.1166 33.7686C69.2692 35.5827 68.7147 37.4799 68.8926 39.1884C69.0752 40.9426 70.0256 42.4431 72.0445 43.4063L72.4751 42.5038ZM76.971 25.7194C91.7273 9.75021 114.679 -0.15009 136.459 1.72749L136.545 0.73119C114.428 -1.17551 91.1813 8.86758 76.2365 25.0407L76.971 25.7194ZM136.459 1.72749C155.825 3.39699 170.9 13.8269 184.038 27.25C190.607 33.9616 196.681 41.411 202.561 48.8733C208.435 56.3284 214.121 63.8061 219.893 70.5397L220.652 69.8889C214.898 63.1762 209.235 55.7287 203.346 48.2544C197.463 40.7871 191.361 33.3025 184.753 26.5505C171.536 13.0463 156.251 2.42993 136.545 0.73119L136.459 1.72749Z" fill="#E7EEF8"/>
</svg>
