<svg width="175" height="47" viewBox="0 0 175 47" fill="none" xmlns="http://www.w3.org/2000/svg">
<path d="M174.463 32.6832C174.567 32.4273 174.444 32.1358 174.188 32.0321L170.016 30.3435C169.761 30.2399 169.469 30.3634 169.365 30.6193C169.262 30.8753 169.385 31.1668 169.641 31.2704L173.349 32.7714L171.848 36.4791C171.744 36.7351 171.868 37.0266 172.124 37.1302C172.38 37.2338 172.671 37.1103 172.775 36.8544L174.463 32.6832ZM0.139306 0.841871C24.2279 25.9341 92.74 67.464 174.195 32.956L173.805 32.0352C92.86 66.3272 24.7721 25.0571 0.860694 0.14934L0.139306 0.841871Z" fill="#E7EEF8"/>
</svg>
