<svg width="153" height="48" viewBox="0 0 153 48" fill="none" xmlns="http://www.w3.org/2000/svg">
<path d="M0.990723 46.4251C0.71458 46.4251 0.490723 46.649 0.490723 46.9251C0.490723 47.2013 0.71458 47.4251 0.990723 47.4251V46.4251ZM22.2517 43.3389L22.0982 42.8631L22.2517 43.3389ZM49.5507 29.7626L49.8439 30.1676L49.5507 29.7626ZM59.9068 14.7592L59.4103 14.8183L59.9068 14.7592ZM48.0138 0.926689L47.9632 1.42412L48.0138 0.926689ZM23.2764 11.5389L23.7662 11.6392L23.2764 11.5389ZM39.1947 23.5051L39.3239 23.0221L39.1947 23.5051ZM87.3521 30.4579L87.3506 30.9579L87.3521 30.4579ZM143.267 22.3341L143.14 21.8506L143.267 22.3341ZM152.956 19.4397C153.055 19.1819 152.926 18.8926 152.669 18.7935L148.469 17.1781C148.211 17.079 147.922 17.2076 147.822 17.4653C147.723 17.723 147.852 18.0123 148.11 18.1115L151.843 19.5474L150.407 23.2808C150.308 23.5385 150.436 23.8278 150.694 23.9269C150.952 24.026 151.241 23.8975 151.34 23.6397L152.956 19.4397ZM0.990723 47.4251C8.36273 47.4251 15.3973 46.0754 22.4052 43.8148L22.0982 42.8631C15.1671 45.0989 8.23729 46.4251 0.990723 46.4251V47.4251ZM22.4052 43.8148C32.1646 40.6666 41.5091 36.2014 49.8439 30.1676L49.2575 29.3576C41.0202 35.3208 31.7733 39.7421 22.0982 42.8631L22.4052 43.8148ZM49.8439 30.1676C52.2792 28.4046 55.122 26.3294 57.2475 23.8216C59.3814 21.3038 60.8322 18.3032 60.4033 14.7L59.4103 14.8183C59.7952 18.0518 58.5108 20.7844 56.4847 23.175C54.4501 25.5756 51.7079 27.5837 49.2575 29.3576L49.8439 30.1676ZM60.4033 14.7C60.0419 11.6648 58.5781 8.27865 56.4164 5.56812C54.2572 2.86086 51.348 0.763182 48.0644 0.429255L47.9632 1.42412C50.8851 1.72126 53.5731 3.6069 55.6346 6.19164C57.6934 8.77312 59.0733 11.9877 59.4103 14.8183L60.4033 14.7ZM48.0644 0.429255C44.1603 0.032237 38.3811 0.370882 33.3224 1.98569C28.2875 3.59287 23.7926 6.52637 22.7865 11.4386L23.7662 11.6392C24.6595 7.27782 28.6894 4.5143 33.6265 2.93833C38.5396 1.36999 44.1794 1.03933 47.9632 1.42412L48.0644 0.429255ZM22.7865 11.4386C22.402 13.3157 22.9949 14.9808 24.1218 16.4084C25.2393 17.8241 26.8955 19.0278 28.7049 20.0351C32.3265 22.051 36.7037 23.3561 39.0654 23.9881L39.3239 23.0221C36.9779 22.3943 32.7 21.1144 29.1913 19.1613C27.4356 18.184 25.9079 17.0571 24.9068 15.7889C23.9151 14.5325 23.4547 13.1602 23.7662 11.6392L22.7865 11.4386ZM39.0654 23.9881C54.7877 28.1955 71.0371 30.9091 87.3506 30.9579L87.3536 29.9579C71.1474 29.9094 54.986 27.2133 39.3239 23.0221L39.0654 23.9881ZM87.3506 30.9579C106.553 31.0154 124.916 27.6959 143.395 22.8175L143.14 21.8506C124.709 26.7163 106.438 30.015 87.3536 29.9579L87.3506 30.9579ZM143.395 22.8175C146.599 21.9716 149.622 21.0816 152.692 19.7171L152.286 18.8033C149.29 20.1347 146.33 21.0085 143.14 21.8506L143.395 22.8175Z" fill="#E7EEF8"/>
</svg>
