<svg width="62" height="52" viewBox="0 0 62 52" fill="none" xmlns="http://www.w3.org/2000/svg">
<path d="M28.0371 39.7756C28.0371 36.5489 27.1938 33.8429 25.5071 31.6466C24.3118 30.1359 22.6911 29.1422 20.6415 28.6692C18.6248 28.1999 16.7181 28.1669 14.9948 28.5666C14.4081 25.0832 15.3615 21.3946 17.7815 17.4859C20.2015 13.5809 23.3365 10.6403 27.1608 8.67492L21.3638 0.333252C18.4305 1.78525 15.6438 3.62592 13.0771 5.85158C10.4738 8.07725 8.16381 10.6366 6.11048 13.5296C4.05715 16.4226 2.51715 19.6896 1.52715 23.3929C0.537146 27.0962 0.262147 30.8729 0.735147 34.7596C1.35115 39.8929 3.00848 43.9996 5.70715 47.0429C8.40215 50.1266 11.7645 51.6666 15.7831 51.6666C19.3215 51.6666 22.2585 50.6032 24.5831 48.4472C26.8858 46.3352 28.0298 43.4422 28.0298 39.7646L28.0371 39.7756ZM61.4918 39.7756C61.4918 36.5489 60.6485 33.8429 58.9618 31.6466C57.7665 30.1066 56.1385 29.1092 54.0961 28.6509C52.0428 28.1962 50.1618 28.1742 48.4495 28.5702C47.8628 25.1236 48.7795 21.4202 51.2068 17.4969C53.6268 13.6102 56.7545 10.6769 60.5788 8.69692L54.7965 0.333252C51.8631 1.78525 49.0948 3.62592 46.5098 5.85158C43.8828 8.11023 41.5496 10.6897 39.5652 13.5296C37.5265 16.4263 36.0085 19.6896 35.0185 23.3929C34.0168 27.094 33.7465 30.955 34.2228 34.7596C34.8315 39.8929 36.4815 43.9996 39.1728 47.0429C41.8605 50.1009 45.2118 51.6336 49.2305 51.6336C52.7761 51.6336 55.7132 50.5702 58.0378 48.4179C60.3368 46.3059 61.4918 43.4129 61.4918 39.7352V39.7756Z" fill="#E0630A" fill-opacity="0.06"/>
</svg>
