<svg width="12" height="15" viewBox="0 0 12 15" fill="none" xmlns="http://www.w3.org/2000/svg">
<path fill-rule="evenodd" clip-rule="evenodd" d="M7.20216 3.0555C7.20216 1.82884 8.20216 0.833502 9.43416 0.833502C9.72666 0.832801 10.0164 0.889719 10.2869 1.00101C10.5574 1.11229 10.8034 1.27577 11.0107 1.4821C11.218 1.68843 11.3827 1.93358 11.4952 2.20354C11.6078 2.47351 11.6661 2.763 11.6668 3.0555C11.6668 4.28284 10.6668 5.27817 9.43416 5.27817C9.13855 5.27853 8.84582 5.22014 8.57298 5.10638C8.30013 4.99262 8.05262 4.82576 7.84483 4.6155L4.75483 6.7195C4.84089 7.14817 4.79868 7.59269 4.6335 7.9975L8.0215 10.2242C8.42054 9.89872 8.9199 9.72136 9.43483 9.72217C9.72733 9.72155 10.0171 9.77856 10.2875 9.88993C10.558 10.0013 10.8039 10.1648 11.0112 10.3712C11.2184 10.5776 11.383 10.8228 11.4955 11.0928C11.608 11.3628 11.6662 11.6523 11.6668 11.9448C11.6668 13.1715 10.6668 14.1668 9.43416 14.1668C8.84355 14.1681 8.27663 13.9347 7.85807 13.518C7.43951 13.1013 7.20358 12.5354 7.20216 11.9448C7.20165 11.6333 7.26732 11.3251 7.39483 11.0408L4.0335 8.8335C3.62644 9.18744 3.10491 9.38189 2.5655 9.38084C2.27297 9.38154 1.98318 9.32459 1.71267 9.21326C1.44217 9.10192 1.19625 8.93837 0.98897 8.73196C0.781692 8.52555 0.617117 8.28032 0.504648 8.01028C0.392179 7.74024 0.334021 7.45069 0.333496 7.15817C0.334108 6.8657 0.392331 6.57622 0.504839 6.30626C0.617347 6.0363 0.781936 5.79115 0.989206 5.58481C1.19647 5.37847 1.44236 5.21498 1.71283 5.10368C1.98329 4.99239 2.27303 4.93547 2.5655 4.93617C3.27483 4.93617 3.9055 5.26484 4.31416 5.77684L7.3095 3.7375C7.23823 3.51719 7.20201 3.28705 7.20216 3.0555Z" fill="url(#paint0_linear_403_659)"/>
<defs>
<linearGradient id="paint0_linear_403_659" x1="12.0505" y1="7.50921" x2="-1.0389" y2="7.50921" gradientUnits="userSpaceOnUse">
<stop stop-color="#187EC0"/>
<stop offset="1" stop-color="#005296"/>
</linearGradient>
</defs>
</svg>
