<svg width="64" height="64" viewBox="0 0 64 64" fill="none" xmlns="http://www.w3.org/2000/svg">
<rect width="64" height="64" rx="32" fill="#1A86CC"/>
<path d="M42.6667 38.6667C43.3739 38.6667 44.0522 38.3858 44.5523 37.8857C45.0524 37.3856 45.3333 36.7073 45.3333 36.0001V21.3334C45.3333 20.6262 45.0524 19.9479 44.5523 19.4478C44.0522 18.9477 43.3739 18.6667 42.6667 18.6667H28.6133C29.08 19.4801 29.3333 20.4001 29.3333 21.3334H42.6667V36.0001H30.6667V38.6667M36 25.3334V28.0001H28V45.3334H25.3333V37.3334H22.6667V45.3334H20V34.6667H18V28.0001C18 27.2928 18.281 26.6146 18.781 26.1145C19.2811 25.6144 19.9594 25.3334 20.6667 25.3334H36ZM26.6667 21.3334C26.6667 22.0407 26.3857 22.7189 25.8856 23.219C25.3855 23.7191 24.7072 24.0001 24 24.0001C23.2928 24.0001 22.6145 23.7191 22.1144 23.219C21.6143 22.7189 21.3333 22.0407 21.3333 21.3334C21.3333 20.6262 21.6143 19.9479 22.1144 19.4478C22.6145 18.9477 23.2928 18.6667 24 18.6667C24.7072 18.6667 25.3855 18.9477 25.8856 19.4478C26.3857 19.9479 26.6667 20.6262 26.6667 21.3334Z" fill="white"/>
</svg>
