<svg width="32" height="32" viewBox="0 0 32 32" fill="none" xmlns="http://www.w3.org/2000/svg">
<path d="M26.6667 22.6667C27.3739 22.6667 28.0522 22.3858 28.5523 21.8857C29.0524 21.3856 29.3333 20.7073 29.3333 20.0001V5.33341C29.3333 4.62617 29.0524 3.94789 28.5523 3.4478C28.0522 2.9477 27.3739 2.66675 26.6667 2.66675H12.6133C13.08 3.48008 13.3333 4.40008 13.3333 5.33341H26.6667V20.0001H14.6667V22.6667M20 9.33342V12.0001H12V29.3334H9.33333V21.3334H6.66667V29.3334H4V18.6667H2V12.0001C2 11.2928 2.28095 10.6146 2.78105 10.1145C3.28115 9.61437 3.95942 9.33342 4.66667 9.33342H20ZM10.6667 5.33341C10.6667 6.04066 10.3857 6.71894 9.88562 7.21903C9.38552 7.71913 8.70724 8.00008 8 8.00008C7.29276 8.00008 6.61448 7.71913 6.11438 7.21903C5.61428 6.71894 5.33333 6.04066 5.33333 5.33341C5.33333 4.62617 5.61428 3.94789 6.11438 3.4478C6.61448 2.9477 7.29276 2.66675 8 2.66675C8.70724 2.66675 9.38552 2.9477 9.88562 3.4478C10.3857 3.94789 10.6667 4.62617 10.6667 5.33341Z" fill="white"/>
</svg>
