<svg width="72" height="72" viewBox="0 0 72 72" fill="none" xmlns="http://www.w3.org/2000/svg">
<g filter="url(#filter0_d_126_10808)">
<rect x="4" width="64" height="64" rx="32" fill="white" shape-rendering="crispEdges"/>
<path fill-rule="evenodd" clip-rule="evenodd" d="M24.3634 36.3907C23.2321 34.92 22.6665 34.1847 22.6665 32C22.6665 29.8174 23.2318 29.0818 24.3624 27.6108L24.3665 27.6054C26.6292 24.6667 30.4238 21.3334 35.9998 21.3334C41.5758 21.3334 45.3705 24.6667 47.6332 27.6054L47.6363 27.6094C48.7675 29.08 49.3332 29.8154 49.3332 32C49.3332 34.1854 48.7665 34.9227 47.6332 36.3947C45.3705 39.3334 41.5758 42.6667 35.9998 42.6667C30.4238 42.6667 26.6292 39.3334 24.3665 36.3947L24.3634 36.3907ZM32.4643 28.4645C33.402 27.5268 34.6738 27 35.9998 27C37.3259 27 38.5977 27.5268 39.5354 28.4645C40.4731 29.4022 40.9998 30.674 40.9998 32C40.9998 33.3261 40.4731 34.5979 39.5354 35.5356C38.5977 36.4733 37.3259 37 35.9998 37C34.6738 37 33.402 36.4733 32.4643 35.5356C31.5266 34.5979 30.9998 33.3261 30.9998 32C30.9998 30.674 31.5266 29.4022 32.4643 28.4645ZM33.8785 29.8787C33.3159 30.4413 32.9998 31.2044 32.9998 32C32.9998 32.7957 33.3159 33.5588 33.8785 34.1214C34.4411 34.684 35.2042 35 35.9998 35C36.7955 35 37.5585 34.684 38.1212 34.1214C38.6838 33.5588 38.9998 32.7957 38.9998 32C38.9998 31.2044 38.6838 30.4413 38.1212 29.8787C37.5585 29.3161 36.7955 29 35.9998 29C35.2042 29 34.4411 29.3161 33.8785 29.8787Z" fill="#E0630A"/>
</g>
<defs>
<filter id="filter0_d_126_10808" x="0" y="0" width="72" height="72" filterUnits="userSpaceOnUse" color-interpolation-filters="sRGB">
<feFlood flood-opacity="0" result="BackgroundImageFix"/>
<feColorMatrix in="SourceAlpha" type="matrix" values="0 0 0 0 0 0 0 0 0 0 0 0 0 0 0 0 0 0 127 0" result="hardAlpha"/>
<feOffset dy="4"/>
<feGaussianBlur stdDeviation="2"/>
<feComposite in2="hardAlpha" operator="out"/>
<feColorMatrix type="matrix" values="0 0 0 0 0 0 0 0 0 0 0 0 0 0 0 0 0 0 0.05 0"/>
<feBlend mode="normal" in2="BackgroundImageFix" result="effect1_dropShadow_126_10808"/>
<feBlend mode="normal" in="SourceGraphic" in2="effect1_dropShadow_126_10808" result="shape"/>
</filter>
</defs>
</svg>
