<svg width="12" height="14" viewBox="0 0 12 14" fill="none" xmlns="http://www.w3.org/2000/svg">
<path d="M7.75537 9.71875V11.3672C7.75537 11.7161 7.65381 11.8906 7.45068 11.8906C7.33089 11.8906 7.21371 11.8333 7.09912 11.7188V9.36719C7.21371 9.2526 7.33089 9.19531 7.45068 9.19531C7.65381 9.19531 7.75537 9.36979 7.75537 9.71875ZM10.396 9.72656V10.0859H9.69287V9.72656C9.69287 9.3724 9.81006 9.19531 10.0444 9.19531C10.2788 9.19531 10.396 9.3724 10.396 9.72656ZM2.84912 8.02344H3.68506V7.28906H1.24756V8.02344H2.06787V12.4688H2.84912V8.02344ZM5.09912 12.4688H5.79443V8.60938H5.09912V11.5625C4.94287 11.7812 4.79443 11.8906 4.65381 11.8906C4.56006 11.8906 4.50537 11.8359 4.48975 11.7266C4.48454 11.7109 4.48193 11.6198 4.48193 11.4531V8.60938H3.78662V11.6641C3.78662 11.9193 3.80745 12.1094 3.84912 12.2344C3.91162 12.4271 4.06266 12.5234 4.30225 12.5234C4.55225 12.5234 4.81787 12.3646 5.09912 12.0469V12.4688ZM8.45068 11.3125V9.77344C8.45068 9.39323 8.42725 9.13542 8.38037 9C8.29183 8.70833 8.10693 8.5625 7.82568 8.5625C7.56527 8.5625 7.32308 8.70312 7.09912 8.98438V7.28906H6.40381V12.4688H7.09912V12.0938C7.3335 12.3802 7.57568 12.5234 7.82568 12.5234C8.10693 12.5234 8.29183 12.3802 8.38037 12.0938C8.42725 11.9531 8.45068 11.6927 8.45068 11.3125ZM11.0913 11.2344V11.1328H10.3804C10.3804 11.3984 10.3752 11.5573 10.3647 11.6094C10.3283 11.7969 10.2241 11.8906 10.0522 11.8906C9.81266 11.8906 9.69287 11.7109 9.69287 11.3516V10.6719H11.0913V9.86719C11.0913 9.45573 11.021 9.15365 10.8804 8.96094C10.6772 8.69531 10.4012 8.5625 10.0522 8.5625C9.69808 8.5625 9.41943 8.69531 9.21631 8.96094C9.07048 9.15365 8.99756 9.45573 8.99756 9.86719V11.2188C8.99756 11.6302 9.07308 11.9323 9.22412 12.125C9.42725 12.3906 9.7085 12.5234 10.0679 12.5234C10.4429 12.5234 10.7241 12.3854 10.9116 12.1094C11.0054 11.9688 11.0601 11.8281 11.0757 11.6875C11.0861 11.6406 11.0913 11.4896 11.0913 11.2344ZM6.34131 4.10156V2.46094C6.34131 2.10156 6.22933 1.92188 6.00537 1.92188C5.78141 1.92188 5.66943 2.10156 5.66943 2.46094V4.10156C5.66943 4.46615 5.78141 4.64844 6.00537 4.64844C6.22933 4.64844 6.34131 4.46615 6.34131 4.10156ZM11.9585 9.96875C11.9585 11.1875 11.8908 12.099 11.7554 12.7031C11.6825 13.0104 11.5314 13.2682 11.3022 13.4766C11.0731 13.6849 10.8075 13.8047 10.5054 13.8359C9.54704 13.9453 8.10173 14 6.16943 14C4.23714 14 2.79183 13.9453 1.8335 13.8359C1.53141 13.8047 1.26449 13.6849 1.03271 13.4766C0.800944 13.2682 0.651204 13.0104 0.583496 12.7031C0.448079 12.1198 0.380371 11.2083 0.380371 9.96875C0.380371 8.75 0.448079 7.83854 0.583496 7.23438C0.656413 6.92708 0.807454 6.66927 1.03662 6.46094C1.26579 6.2526 1.53402 6.13021 1.84131 6.09375C2.79443 5.98958 4.23714 5.9375 6.16943 5.9375C8.10173 5.9375 9.54704 5.98958 10.5054 6.09375C10.8075 6.13021 11.0744 6.2526 11.3062 6.46094C11.5379 6.66927 11.6877 6.92708 11.7554 7.23438C11.8908 7.81771 11.9585 8.72917 11.9585 9.96875ZM4.16162 0H4.9585L4.01318 3.11719V5.23438H3.23193V3.11719C3.15902 2.73177 3.00016 2.17969 2.75537 1.46094C2.56266 0.924479 2.39339 0.4375 2.24756 0H3.07568L3.63037 2.05469L4.16162 0ZM7.05225 2.60156V3.96875C7.05225 4.39062 6.97933 4.69792 6.8335 4.89062C6.63558 5.15625 6.35954 5.28906 6.00537 5.28906C5.65641 5.28906 5.38298 5.15625 5.18506 4.89062C5.03923 4.69271 4.96631 4.38542 4.96631 3.96875V2.60156C4.96631 2.1849 5.03923 1.88021 5.18506 1.6875C5.38298 1.42188 5.65641 1.28906 6.00537 1.28906C6.35954 1.28906 6.63558 1.42188 6.8335 1.6875C6.97933 1.88021 7.05225 2.1849 7.05225 2.60156ZM9.66943 1.33594V5.23438H8.9585V4.80469C8.68246 5.1276 8.41423 5.28906 8.15381 5.28906C7.91423 5.28906 7.76058 5.19271 7.69287 5C7.65121 4.875 7.63037 4.67969 7.63037 4.41406V1.33594H8.34131V4.20312C8.34131 4.375 8.34391 4.46615 8.34912 4.47656C8.36475 4.59115 8.41943 4.64844 8.51318 4.64844C8.65381 4.64844 8.80225 4.53646 8.9585 4.3125V1.33594H9.66943Z" fill="#313131"/>
</svg>
