<svg width="28" height="28" viewBox="0 0 28 28" fill="none" xmlns="http://www.w3.org/2000/svg">
<rect x="0.5" y="0.5" width="27" height="27" rx="13.5" stroke="#E7EEF8"/>
<path fill-rule="evenodd" clip-rule="evenodd" d="M8.75 14C8.75 13.9005 8.78951 13.8052 8.85983 13.7348C8.93016 13.6645 9.02554 13.625 9.125 13.625H17.9698L15.6095 11.2655C15.5391 11.1951 15.4995 11.0996 15.4995 11C15.4995 10.9004 15.5391 10.8049 15.6095 10.7345C15.6799 10.6641 15.7754 10.6245 15.875 10.6245C15.9746 10.6245 16.0701 10.6641 16.1405 10.7345L19.1405 13.7345C19.1754 13.7693 19.2031 13.8107 19.222 13.8563C19.2409 13.9018 19.2507 13.9507 19.2507 14C19.2507 14.0493 19.2409 14.0982 19.222 14.1437C19.2031 14.1893 19.1754 14.2307 19.1405 14.2655L16.1405 17.2655C16.0701 17.3359 15.9746 17.3755 15.875 17.3755C15.7754 17.3755 15.6799 17.3359 15.6095 17.2655C15.5391 17.1951 15.4995 17.0996 15.4995 17C15.4995 16.9004 15.5391 16.8049 15.6095 16.7345L17.9698 14.375H9.125C9.02554 14.375 8.93016 14.3355 8.85983 14.2652C8.78951 14.1948 8.75 14.0995 8.75 14Z" fill="#313131"/>
</svg>
