<svg width="28" height="28" viewBox="0 0 28 28" fill="none" xmlns="http://www.w3.org/2000/svg">
<g opacity="0.64">
<rect x="0.5" y="0.5" width="27" height="27" rx="13.5" stroke="#E7EEF8"/>
<path fill-rule="evenodd" clip-rule="evenodd" d="M19.2501 14C19.2501 13.9005 19.2106 13.8052 19.1402 13.7348C19.0699 13.6645 18.9745 13.625 18.8751 13.625H10.0303L12.3906 11.2655C12.4254 11.2306 12.4531 11.1892 12.472 11.1437C12.4908 11.0981 12.5005 11.0493 12.5005 11C12.5005 10.9507 12.4908 10.9019 12.472 10.8563C12.4531 10.8108 12.4254 10.7694 12.3906 10.7345C12.3557 10.6996 12.3143 10.672 12.2687 10.6531C12.2232 10.6342 12.1744 10.6245 12.1251 10.6245C12.0758 10.6245 12.0269 10.6342 11.9814 10.6531C11.9358 10.672 11.8944 10.6996 11.8596 10.7345L8.85956 13.7345C8.82464 13.7693 8.79693 13.8107 8.77803 13.8563C8.75912 13.9018 8.74939 13.9507 8.74939 14C8.74939 14.0493 8.75912 14.0982 8.77803 14.1437C8.79693 14.1893 8.82464 14.2307 8.85956 14.2655L11.8596 17.2655C11.8944 17.3004 11.9358 17.328 11.9814 17.3469C12.0269 17.3658 12.0758 17.3755 12.1251 17.3755C12.1744 17.3755 12.2232 17.3658 12.2687 17.3469C12.3143 17.328 12.3557 17.3004 12.3906 17.2655C12.4254 17.2306 12.4531 17.1892 12.472 17.1437C12.4908 17.0981 12.5005 17.0493 12.5005 17C12.5005 16.9507 12.4908 16.9019 12.472 16.8563C12.4531 16.8108 12.4254 16.7694 12.3906 16.7345L10.0303 14.375H18.8751C18.9745 14.375 19.0699 14.3355 19.1402 14.2652C19.2106 14.1948 19.2501 14.0995 19.2501 14Z" fill="#5D5F69"/>
</g>
</svg>
