<svg width="20" height="20" viewBox="0 0 20 20" fill="none" xmlns="http://www.w3.org/2000/svg">
<path fill-rule="evenodd" clip-rule="evenodd" d="M9.90193 11.6703L14.3211 16.0894C14.5556 16.3239 14.8736 16.4557 15.2053 16.4557C15.5369 16.4557 15.8549 16.3239 16.0894 16.0894C16.3239 15.855 16.4557 15.5369 16.4557 15.2053C16.4557 14.8737 16.3239 14.5556 16.0894 14.3211L11.6686 9.90195L16.0886 5.48278C16.2047 5.36667 16.2967 5.22884 16.3595 5.07715C16.4223 4.92547 16.4546 4.7629 16.4545 4.59874C16.4545 4.43457 16.4221 4.27202 16.3593 4.12036C16.2964 3.96871 16.2043 3.83092 16.0882 3.71486C15.9721 3.59881 15.8342 3.50676 15.6826 3.44397C15.5309 3.38118 15.3683 3.34889 15.2041 3.34892C15.04 3.34896 14.8774 3.38134 14.7258 3.4442C14.5741 3.50706 14.4363 3.59917 14.3203 3.71528L9.90193 8.13445L5.48277 3.71528C5.36751 3.59584 5.22963 3.50055 5.07715 3.43497C4.92468 3.36938 4.76067 3.33482 4.5947 3.3333C4.42873 3.33178 4.26411 3.36333 4.11046 3.42611C3.95681 3.48889 3.81721 3.58164 3.69979 3.69895C3.58236 3.81626 3.48948 3.95578 3.42656 4.10937C3.36364 4.26296 3.33193 4.42755 3.33329 4.59352C3.33466 4.75949 3.36906 4.92354 3.4345 5.07607C3.49994 5.22861 3.5951 5.36658 3.71443 5.48195L8.13527 9.90195L3.71527 14.3219C3.59593 14.4373 3.50077 14.5753 3.43533 14.7278C3.3699 14.8804 3.33549 15.0444 3.33413 15.2104C3.33276 15.3763 3.36447 15.5409 3.42739 15.6945C3.49032 15.8481 3.5832 15.9876 3.70062 16.1049C3.81804 16.2223 3.95765 16.315 4.1113 16.3778C4.26495 16.4406 4.42956 16.4721 4.59553 16.4706C4.76151 16.4691 4.92551 16.4345 5.07799 16.3689C5.23046 16.3033 5.36835 16.2081 5.4836 16.0886L9.90193 11.6703Z" fill="#5D5F69"/>
</svg>
