<svg width="14" height="14" viewBox="0 0 14 14" fill="none" xmlns="http://www.w3.org/2000/svg">
<g clip-path="url(#clip0_8506_2317)">
<path d="M7.68539 0.333008C8.43539 0.335008 8.81606 0.339008 9.14472 0.348341L9.27406 0.353008C9.42339 0.358341 9.57072 0.365008 9.74872 0.373008C10.4581 0.406341 10.9421 0.518341 11.3667 0.683008C11.8067 0.852341 12.1774 1.08168 12.5481 1.45168C12.8871 1.78494 13.1494 2.18807 13.3167 2.63301C13.4814 3.05768 13.5934 3.54168 13.6267 4.25168C13.6347 4.42901 13.6414 4.57635 13.6467 4.72635L13.6507 4.85568C13.6607 5.18368 13.6647 5.56435 13.6661 6.31435L13.6667 6.81168V7.68501C13.6684 8.17128 13.6633 8.65755 13.6514 9.14368L13.6474 9.27301C13.6421 9.42301 13.6354 9.57035 13.6274 9.74768C13.5941 10.4577 13.4807 10.9411 13.3167 11.3664C13.1498 11.8116 12.8875 12.2148 12.5481 12.5477C12.2147 12.8866 11.8116 13.1489 11.3667 13.3164C10.9421 13.4811 10.4581 13.5931 9.74872 13.6264C9.59054 13.6338 9.43231 13.6405 9.27406 13.6464L9.14472 13.6504C8.81606 13.6597 8.43539 13.6644 7.68539 13.6657L7.18806 13.6664H6.31539C5.8289 13.6681 5.34241 13.663 4.85606 13.6511L4.72673 13.6471C4.56847 13.6411 4.41024 13.6342 4.25206 13.6264C3.54273 13.5931 3.05873 13.4811 2.63339 13.3164C2.18851 13.1493 1.78554 12.887 1.45273 12.5477C1.11342 12.2146 0.850875 11.8114 0.683392 11.3664C0.518726 10.9417 0.406726 10.4577 0.373392 9.74768C0.365965 9.58949 0.359298 9.43127 0.353392 9.27301L0.350059 9.14368C0.337774 8.65756 0.332218 8.17129 0.333392 7.68501V6.31435C0.331532 5.82808 0.336421 5.34181 0.348059 4.85568L0.352726 4.72635C0.358059 4.57635 0.364726 4.42901 0.372726 4.25168C0.406059 3.54168 0.518059 3.05835 0.682726 2.63301C0.850135 2.18761 1.11321 1.78436 1.45339 1.45168C1.78612 1.11266 2.18882 0.850333 2.63339 0.683008C3.05873 0.518341 3.54206 0.406341 4.25206 0.373008C4.42939 0.365008 4.57739 0.358341 4.72673 0.353008L4.85606 0.349008C5.34219 0.337163 5.82846 0.332051 6.31473 0.333675L7.68539 0.333008ZM7.00006 3.66635C6.116 3.66635 5.26816 4.01753 4.64304 4.64266C4.01792 5.26778 3.66673 6.11562 3.66673 6.99968C3.66673 7.88373 4.01792 8.73158 4.64304 9.3567C5.26816 9.98182 6.116 10.3331 7.00006 10.3331C7.88411 10.3331 8.73196 9.98182 9.35708 9.3567C9.9822 8.73158 10.3334 7.88373 10.3334 6.99968C10.3334 6.11562 9.9822 5.26778 9.35708 4.64266C8.73196 4.01753 7.88411 3.66635 7.00006 3.66635ZM7.00006 4.99968C7.2627 4.99964 7.52278 5.05132 7.76545 5.15179C8.00812 5.25226 8.22862 5.39954 8.41437 5.58523C8.60012 5.77092 8.74747 5.99137 8.84802 6.234C8.94857 6.47664 9.00035 6.7367 9.00039 6.99935C9.00044 7.26199 8.94875 7.52207 8.84828 7.76474C8.74781 8.00741 8.60053 8.22791 8.41484 8.41366C8.22916 8.5994 8.0087 8.74676 7.76607 8.84731C7.52343 8.94786 7.26337 8.99964 7.00073 8.99968C6.47029 8.99968 5.96158 8.78897 5.58651 8.41389C5.21144 8.03882 5.00073 7.53011 5.00073 6.99968C5.00073 6.46925 5.21144 5.96054 5.58651 5.58546C5.96158 5.21039 6.46962 4.99968 7.00006 4.99968ZM10.5007 2.66635C10.2797 2.66635 10.0677 2.75414 9.91147 2.91042C9.75519 3.0667 9.66739 3.27866 9.66739 3.49968C9.66739 3.72069 9.75519 3.93265 9.91147 4.08893C10.0677 4.24521 10.2797 4.33301 10.5007 4.33301C10.7217 4.33301 10.9337 4.24521 11.09 4.08893C11.2463 3.93265 11.3341 3.72069 11.3341 3.49968C11.3341 3.27866 11.2463 3.0667 11.09 2.91042C10.9337 2.75414 10.7217 2.66635 10.5007 2.66635Z" fill="url(#paint0_linear_8506_2317)"/>
</g>
<defs>
<linearGradient id="paint0_linear_8506_2317" x1="14.1184" y1="7.00888" x2="-1.28166" y2="7.00888" gradientUnits="userSpaceOnUse">
<stop stop-color="#0B1C68"/>
<stop offset="1" stop-color="#010A35"/>
</linearGradient>
<clipPath id="clip0_8506_2317">
<rect width="14" height="14" fill="white"/>
</clipPath>
</defs>
</svg>
