<svg width="64" height="64" viewBox="0 0 64 64" fill="none" xmlns="http://www.w3.org/2000/svg">
<g clip-path="url(#clip0_8506_2296)">
<path d="M64 32C64 14.3269 49.6731 0 32 0C14.3269 0 0 14.3269 0 32C0 49.6731 14.3269 64 32 64C49.6731 64 64 49.6731 64 32Z" fill="#0B1C68"/>
<path d="M42.6667 38.6665C43.3739 38.6665 44.0522 38.3856 44.5523 37.8855C45.0524 37.3854 45.3333 36.7071 45.3333 35.9999V21.3332C45.3333 20.626 45.0524 19.9477 44.5523 19.4476C44.0522 18.9475 43.3739 18.6665 42.6667 18.6665H28.6133C29.08 19.4799 29.3333 20.3999 29.3333 21.3332H42.6667V35.9999H30.6667V38.6665M36 25.3332V27.9999H28V45.3332H25.3333V37.3332H22.6667V45.3332H20V34.6665H18V27.9999C18 27.2926 18.281 26.6144 18.781 26.1143C19.2811 25.6142 19.9594 25.3332 20.6667 25.3332H36ZM26.6667 21.3332C26.6667 22.0405 26.3857 22.7187 25.8856 23.2188C25.3855 23.7189 24.7072 23.9999 24 23.9999C23.2928 23.9999 22.6145 23.7189 22.1144 23.2188C21.6143 22.7187 21.3333 22.0405 21.3333 21.3332C21.3333 20.626 21.6143 19.9477 22.1144 19.4476C22.6145 18.9475 23.2928 18.6665 24 18.6665C24.7072 18.6665 25.3855 18.9475 25.8856 19.4476C26.3857 19.9477 26.6667 20.626 26.6667 21.3332Z" fill="white"/>
</g>
<defs>
<clipPath id="clip0_8506_2296">
<rect width="64" height="64" fill="white"/>
</clipPath>
</defs>
</svg>
