<svg width="17" height="16" viewBox="0 0 17 16" fill="none" xmlns="http://www.w3.org/2000/svg">
<path d="M2.00195 12.6666C2.00195 13.7999 2.86862 14.6666 4.00195 14.6666H13.3353C14.4686 14.6666 15.3353 13.7999 15.3353 12.6666V7.33325H2.00195V12.6666ZM13.3353 2.66659H12.002V1.99992C12.002 1.59992 11.7353 1.33325 11.3353 1.33325C10.9353 1.33325 10.6686 1.59992 10.6686 1.99992V2.66659H6.66862V1.99992C6.66862 1.59992 6.40195 1.33325 6.00195 1.33325C5.60195 1.33325 5.33529 1.59992 5.33529 1.99992V2.66659H4.00195C2.86862 2.66659 2.00195 3.53325 2.00195 4.66659V5.99992H15.3353V4.66659C15.3353 3.53325 14.4686 2.66659 13.3353 2.66659Z" fill="#5D5F69"/>
</svg>
