<svg width="20" height="20" viewBox="0 0 20 20" fill="none" xmlns="http://www.w3.org/2000/svg">
<g opacity="0.4" clip-path="url(#clip0_3468_15035)">
<mask id="mask0_3468_15035" style="mask-type:alpha" maskUnits="userSpaceOnUse" x="0" y="0" width="20" height="20">
<path opacity="0.32" d="M1.0415 10.0001C1.0415 14.9477 5.05229 18.9584 9.99984 18.9584C14.9474 18.9584 18.9582 14.9477 18.9582 10.0001C18.9582 5.05253 14.9474 1.04175 9.99984 1.04175C5.05229 1.04175 1.0415 5.05253 1.0415 10.0001Z" fill="#262829"/>
<path fill-rule="evenodd" clip-rule="evenodd" d="M13.0891 6.91085C13.4145 7.23629 13.4145 7.76393 13.0891 8.08936L11.1783 10.0001L13.0891 11.9108C13.4145 12.2362 13.4145 12.7638 13.0891 13.0893C12.7637 13.4147 12.2361 13.4147 11.9106 13.0893L9.99967 11.1786L8.08907 13.089C7.76363 13.4144 7.23599 13.4144 6.91056 13.089C6.58514 12.7636 6.58515 12.2359 6.9106 11.9105L8.82109 10.0001L6.9106 8.08968C6.58515 7.76426 6.58514 7.23662 6.91056 6.91117C7.23599 6.58572 7.76363 6.58571 8.08907 6.91113L9.99967 8.82158L11.9106 6.91081C12.2361 6.58538 12.7637 6.5854 13.0891 6.91085Z" fill="#262829"/>
</mask>
<g mask="url(#mask0_3468_15035)">
<rect width="20" height="20" fill="#B91C1C"/>
</g>
</g>
<defs>
<clipPath id="clip0_3468_15035">
<rect width="20" height="20" fill="white"/>
</clipPath>
</defs>
</svg>
