<svg width="20" height="20" viewBox="0 0 20 20" fill="none" xmlns="http://www.w3.org/2000/svg">
<g opacity="0.4" clip-path="url(#clip0_3465_6516)">
<mask id="mask0_3465_6516" style="mask-type:alpha" maskUnits="userSpaceOnUse" x="0" y="0" width="20" height="20">
<path opacity="0.32" d="M1.04297 10C1.04297 14.9476 5.05375 18.9584 10.0013 18.9584C14.9489 18.9584 18.9596 14.9476 18.9596 10C18.9596 5.05247 14.9489 1.04169 10.0013 1.04169C5.05375 1.04169 1.04297 5.05247 1.04297 10Z" fill="#262829"/>
<path fill-rule="evenodd" clip-rule="evenodd" d="M13.0906 6.91079C13.416 7.23623 13.416 7.76387 13.0906 8.08929L11.1797 10L13.0906 11.9108C13.416 12.2362 13.416 12.7638 13.0906 13.0893C12.7651 13.4147 12.2376 13.4147 11.9121 13.0893L10.0011 11.1785L8.09053 13.0889C7.76509 13.4144 7.23745 13.4144 6.91203 13.0889C6.5866 12.7635 6.58662 12.2359 6.91207 11.9104L8.82255 10L6.91207 8.08962C6.58662 7.76419 6.5866 7.23656 6.91203 6.91111C7.23745 6.58566 7.76509 6.58564 8.09053 6.91107L10.0011 8.82152L11.9121 6.91074C12.2376 6.58532 12.7651 6.58534 13.0906 6.91079Z" fill="#262829"/>
</mask>
<g mask="url(#mask0_3465_6516)">
<rect width="20" height="20" fill="#166534"/>
</g>
</g>
<defs>
<clipPath id="clip0_3465_6516">
<rect width="20" height="20" fill="white"/>
</clipPath>
</defs>
</svg>
