<svg width="56" height="56" viewBox="0 0 56 56" fill="none" xmlns="http://www.w3.org/2000/svg">
<g clip-path="url(#clip0_2182_18779)">
<mask id="mask0_2182_18779" style="mask-type:alpha" maskUnits="userSpaceOnUse" x="0" y="0" width="56" height="56">
<path opacity="0.32" d="M2.91797 28C2.91797 41.8533 14.1482 53.0834 28.0013 53.0834C41.8545 53.0834 53.0846 41.8533 53.0846 28C53.0846 14.1469 41.8545 2.91669 28.0013 2.91669C14.1482 2.91669 2.91797 14.1469 2.91797 28Z" fill="#262829"/>
<path fill-rule="evenodd" clip-rule="evenodd" d="M27.2565 25.7304C27.8328 25.8078 28.6303 26.0153 29.307 26.6919C29.9837 27.3686 30.1911 28.1659 30.2686 28.7425C30.3327 29.2199 30.3323 29.7752 30.332 30.2414C30.332 30.2727 30.332 30.3032 30.332 30.3333V39.6667C30.332 40.9554 29.2874 42 27.9987 42C26.71 42 25.6654 40.9554 25.6654 39.6667V30.3333C24.3767 30.3333 23.332 29.2887 23.332 28C23.332 26.7113 24.3767 25.6667 25.6654 25.6667C25.6955 25.6667 25.7263 25.6667 25.7573 25.6667C26.2237 25.6664 26.7788 25.666 27.2565 25.7304Z" fill="#262829"/>
<path fill-rule="evenodd" clip-rule="evenodd" d="M25.668 18.6666C25.668 17.378 26.7079 16.3333 27.9908 16.3333H28.0118C29.2947 16.3333 30.3346 17.378 30.3346 18.6666C30.3346 19.9553 29.2947 21 28.0118 21H27.9908C26.7079 21 25.668 19.9553 25.668 18.6666Z" fill="#262829"/>
</mask>
<g mask="url(#mask0_2182_18779)">
<rect width="56" height="56" fill="#B91C1C"/>
</g>
</g>
<defs>
<clipPath id="clip0_2182_18779">
<rect width="56" height="56" fill="white"/>
</clipPath>
</defs>
</svg>
