<svg width="17" height="16" viewBox="0 0 17 16" fill="none" xmlns="http://www.w3.org/2000/svg">
<path fill-rule="evenodd" clip-rule="evenodd" d="M7.89798 1.33325H10.494C10.9763 1.33361 11.4474 1.47927 11.8457 1.75122C12.2441 2.02318 12.5513 2.40883 12.7273 2.85792C12.14 2.77925 11.408 2.77925 10.5573 2.77925H8.51065C7.65932 2.77925 6.92598 2.77925 6.33932 2.85792C5.70998 2.94325 5.10665 3.13459 4.61732 3.62592C4.12798 4.11725 3.93732 4.72259 3.85265 5.35459C3.77398 5.94392 3.77398 6.68059 3.77398 7.53459V10.8746C3.77398 11.5826 3.77398 12.4326 3.81865 13.0393C2.94732 12.6779 2.33398 11.8166 2.33398 10.8113V6.91925C2.33398 5.73858 2.33398 4.80325 2.43198 4.07125C2.53265 3.31792 2.74532 2.70792 3.22465 2.22725C3.70332 1.74659 4.31065 1.53325 5.06132 1.43192C5.78998 1.33325 6.72198 1.33325 7.89798 1.33325ZM5.29672 4.30726C4.73405 4.87193 4.73405 5.78059 4.73405 7.59793V10.8113C4.73405 12.6286 4.73405 13.5373 5.29672 14.1019C5.85872 14.6666 6.76405 14.6666 8.57405 14.6666H10.494C12.304 14.6666 13.2094 14.6666 13.772 14.1019C14.334 13.5373 14.334 12.6286 14.334 10.8113V7.59793C14.334 5.78059 14.334 4.87193 13.772 4.30726C13.2094 3.74259 12.304 3.74259 10.494 3.74259H8.57405C6.76338 3.74259 5.85872 3.74259 5.29672 4.30726Z" fill="#5D5F69"/>
</svg>
