<svg width="32" height="32" viewBox="0 0 32 32" fill="none" xmlns="http://www.w3.org/2000/svg">
<g clip-path="url(#clip0_4899_6760)">
<path d="M30.5 16C30.5 13.7118 29.9584 11.456 28.9196 9.41714C27.8808 7.3783 26.3741 5.61426 24.5229 4.26926" stroke="#5D5F69" stroke-width="3" stroke-linecap="round"/>
</g>
<g clip-path="url(#clip1_4899_6760)">
<path d="M30.5 16C30.5 13.7118 29.9584 11.456 28.9196 9.41714C27.8808 7.3783 26.3741 5.61426 24.5229 4.26926" stroke="#5D5F69" stroke-width="3" stroke-linecap="round"/>
</g>
<g clip-path="url(#clip2_4899_6760)">
<path d="M30.5 16C30.5 13.7118 29.9584 11.456 28.9196 9.41714C27.8808 7.3783 26.3741 5.61426 24.5229 4.26926" stroke="#5D5F69" stroke-width="3" stroke-linecap="round"/>
</g>
<g clip-path="url(#clip3_4899_6760)">
<path d="M30.5 16C30.5 13.7118 29.9584 11.456 28.9196 9.41714C27.8808 7.3783 26.3741 5.61426 24.5229 4.26926" stroke="#5D5F69" stroke-width="3" stroke-linecap="round"/>
</g>
<g clip-path="url(#clip4_4899_6760)">
<path d="M30.5 16C30.5 13.7118 29.9584 11.456 28.9196 9.41714C27.8808 7.3783 26.3741 5.61426 24.5229 4.26926" stroke="#5D5F69" stroke-width="3" stroke-linecap="round"/>
</g>
<defs>
<clipPath id="clip0_4899_6760">
<rect width="32" height="32" fill="white"/>
</clipPath>
<clipPath id="clip1_4899_6760">
<rect width="32" height="32" fill="white"/>
</clipPath>
<clipPath id="clip2_4899_6760">
<rect width="32" height="32" fill="white"/>
</clipPath>
<clipPath id="clip3_4899_6760">
<rect width="32" height="32" fill="white"/>
</clipPath>
<clipPath id="clip4_4899_6760">
<rect width="32" height="32" fill="white"/>
</clipPath>
</defs>
</svg>
